<svg viewBox="0 0 100 72" xmlns="http://www.w3.org/2000/svg">
  <g fill="none" fill-rule="evenodd">
    <path d="M0 0h100v72H0z"/>
    <g transform="translate(10.000000, 6.000000)">
      <path d="M54.22 56.22V58c0 3.87 3.13 7 7 7h6.12c.46 0 .92-.03 1.38-.08 6.4-.76 10.96-6.56 10.2-12.95l-3.5-29.44c-.24-2-1.95-3.53-3.97-3.53H58.22c-1.97 0-3.6 1.42-3.94 3.3H25.72c-.34-1.88-1.97-3.3-3.94-3.3H8.55c-2.02 0-3.73 1.52-3.97 3.53l-3.5 29.44c-.05.45-.08.9-.08 1.37C1 59.78 6.22 65 12.66 65h6.12c3.87 0 7-3.13 7-7v-1.78c.96.5 2.06.78 3.22.78 3.6 0 6.58-2.73 6.96-6.24h8.08C44.42 54.26 47.4 57 51 57c1.16 0 2.25-.28 3.22-.78z" fill="#F3F3F3"/>
      <path d="M54.22 56.22V58c0 3.87 3.13 7 7 7h6.12c.46 0 .92-.03 1.38-.08 6.4-.76 10.96-6.56 10.2-12.95l-3.5-29.44c-.24-2-1.95-3.53-3.97-3.53H58.22c-1.97 0-3.6 1.42-3.94 3.3H25.72c-.34-1.88-1.97-3.3-3.94-3.3H8.55c-2.02 0-3.73 1.52-3.97 3.53l-3.5 29.44c-.05.45-.08.9-.08 1.37C1 59.78 6.22 65 12.66 65h6.12c3.87 0 7-3.13 7-7v-1.78c.96.5 2.06.78 3.22.78 3.6 0 6.58-2.73 6.96-6.24h8.08C44.42 54.26 47.4 57 51 57c1.16 0 2.25-.28 3.22-.78z" stroke="#3E3E3E" stroke-width="2" stroke-linecap="round" stroke-linejoin="round" stroke-dasharray="80 10 80 9"/>
      <rect fill="#707070" x="29" y="42" width="8" height="4" rx="2"/>
      <rect stroke="#3E3E3E" stroke-width="2" stroke-linecap="round" stroke-linejoin="round" x="29" y="42" width="8" height="4" rx="2"/>
      <rect fill="#707070" x="43" y="42" width="8" height="4" rx="2"/>
      <rect stroke="#3E3E3E" stroke-width="2" stroke-linecap="round" stroke-linejoin="round" x="43" y="42" width="8" height="4" rx="2"/>
      <circle fill="#C0DAF3" cx="63.5" cy="42" r="2.5"/>
      <circle stroke="#3E3E3E" stroke-width="2" stroke-linecap="round" stroke-linejoin="round" cx="63.5" cy="42" r="2.5"/>
      <circle fill="#F2AFB6" cx="69.5" cy="36" r="2.5"/>
      <circle stroke="#3E3E3E" stroke-width="2" stroke-linecap="round" stroke-linejoin="round" cx="69.5" cy="36" r="2.5"/>
      <circle fill="#F3D5ED" cx="57.5" cy="36" r="2.5"/>
      <circle stroke="#3E3E3E" stroke-width="2" stroke-linecap="round" stroke-linejoin="round" cx="57.5" cy="36" r="2.5"/>
      <circle fill="#7AC2C1" cx="63.5" cy="30" r="2.5"/>
      <circle stroke="#3E3E3E" stroke-width="2" stroke-linecap="round" stroke-linejoin="round" cx="63.5" cy="30" r="2.5"/>
      <path d="M19 33v-5h-6v5H8v6h5v5h6v-5h5v-6h-5z" fill="#707070"/>
      <path d="M19 33v-5h-6v5H8v6h5v5h6v-5h5v-6h-5z" stroke="#3E3E3E" stroke-width="2" stroke-linecap="round" stroke-linejoin="round"/>
      <path d="M40 22v-4c0-1.66 1.34-3 3-3h6c1.1 0 2-.9 2-2s-.9-2-2-2H31c-1.1 0-2-.9-2-2s.9-2 2-2h6c1.66 0 3-1.34 3-3V0" stroke="#3E3E3E" stroke-width="2" stroke-linecap="round" stroke-linejoin="round"/>
    </g>
  </g>
</svg>