<svg viewBox="0 0 100 72" xmlns="http://www.w3.org/2000/svg">
  <g fill="none" fill-rule="evenodd">
    <path d="M0 0h100v72H0z"/>
    <g transform="translate(6.000000, 5.000000)">
      <rect fill="#F3F3F3" x="27" width="34" height="66" rx="2"/>
      <rect stroke="#3E3E3E" stroke-width="2" stroke-linecap="round" stroke-linejoin="round" stroke-dasharray="162 5 2 6" x="27" width="34" height="66" rx="2"/>
      <path d="M27 9h34" stroke="#3E3E3E" stroke-width="2" stroke-linecap="round" stroke-linejoin="round" stroke-dasharray="20 8"/>
      <path d="M29 0h30c1.10457 0 2 .89543 2 2v1H27V2c0-1.10457.89543-2 2-2z" fill="#FBCC21"/>
      <path d="M29 0h30c1.10457 0 2 .89543 2 2v1H27V2c0-1.10457.89543-2 2-2z" stroke="#3E3E3E" stroke-width="2" stroke-linecap="round" stroke-linejoin="round"/>
      <path d="M32 39c-.552285 0-1-.447715-1-1s.447715-1 1-1 1 .447715 1 1-.447715 1-1 1zm-4 0c-.552285 0-1-.447715-1-1s.447715-1 1-1 1 .447715 1 1-.447715 1-1 1zm8 0c-.552285 0-1-.447715-1-1s.447715-1 1-1 1 .447715 1 1-.447715 1-1 1zm4 0c-.552285 0-1-.447715-1-1s.447715-1 1-1 1 .447715 1 1-.447715 1-1 1zm4 0c-.552285 0-1-.447715-1-1s.447715-1 1-1 1 .447715 1 1-.447715 1-1 1zm4 0c-.552285 0-1-.447715-1-1s.447715-1 1-1 1 .447715 1 1-.447715 1-1 1zm4 0c-.552285 0-1-.447715-1-1s.447715-1 1-1 1 .447715 1 1-.447715 1-1 1zm4 0c-.552285 0-1-.447715-1-1s.447715-1 1-1 1 .447715 1 1-.447715 1-1 1zm4 0c-.552285 0-1-.447715-1-1s.447715-1 1-1 1 .447715 1 1-.447715 1-1 1zm-30 3c-.552285 0-1-.447715-1-1s.447715-1 1-1 1 .447715 1 1-.447715 1-1 1zm4 0c-.552285 0-1-.447715-1-1s.447715-1 1-1 1 .447715 1 1-.447715 1-1 1zm4 0c-.552285 0-1-.447715-1-1s.447715-1 1-1 1 .447715 1 1-.447715 1-1 1zm4 0c-.552285 0-1-.447715-1-1s.447715-1 1-1 1 .447715 1 1-.447715 1-1 1zm4 0c-.552285 0-1-.447715-1-1s.447715-1 1-1 1 .447715 1 1-.447715 1-1 1zm4 0c-.552285 0-1-.447715-1-1s.447715-1 1-1 1 .447715 1 1-.447715 1-1 1zm4 0c-.552285 0-1-.447715-1-1s.447715-1 1-1 1 .447715 1 1-.447715 1-1 1zm4 0c-.552285 0-1-.447715-1-1s.447715-1 1-1 1 .447715 1 1-.447715 1-1 1zm-26 3c-.552285 0-1-.447715-1-1s.447715-1 1-1 1 .447715 1 1-.447715 1-1 1zm-4 0c-.552285 0-1-.447715-1-1s.447715-1 1-1 1 .447715 1 1-.447715 1-1 1zm8 0c-.552285 0-1-.447715-1-1s.447715-1 1-1 1 .447715 1 1-.447715 1-1 1zm4 0c-.552285 0-1-.447715-1-1s.447715-1 1-1 1 .447715 1 1-.447715 1-1 1zm4 0c-.552285 0-1-.447715-1-1s.447715-1 1-1 1 .447715 1 1-.447715 1-1 1zm4 0c-.552285 0-1-.447715-1-1s.447715-1 1-1 1 .447715 1 1-.447715 1-1 1zm4 0c-.552285 0-1-.447715-1-1s.447715-1 1-1 1 .447715 1 1-.447715 1-1 1zm4 0c-.552285 0-1-.447715-1-1s.447715-1 1-1 1 .447715 1 1-.447715 1-1 1zm4 0c-.552285 0-1-.447715-1-1s.447715-1 1-1 1 .447715 1 1-.447715 1-1 1zm-30 3c-.552285 0-1-.447715-1-1s.447715-1 1-1 1 .447715 1 1-.447715 1-1 1zm4 0c-.552285 0-1-.447715-1-1s.447715-1 1-1 1 .447715 1 1-.447715 1-1 1zm4 0c-.552285 0-1-.447715-1-1s.447715-1 1-1 1 .447715 1 1-.447715 1-1 1zm4 0c-.552285 0-1-.447715-1-1s.447715-1 1-1 1 .447715 1 1-.447715 1-1 1zm4 0c-.552285 0-1-.447715-1-1s.447715-1 1-1 1 .447715 1 1-.447715 1-1 1zm4 0c-.552285 0-1-.447715-1-1s.447715-1 1-1 1 .447715 1 1-.447715 1-1 1zm4 0c-.552285 0-1-.447715-1-1s.447715-1 1-1 1 .447715 1 1-.447715 1-1 1zm4 0c-.552285 0-1-.447715-1-1s.447715-1 1-1 1 .447715 1 1-.447715 1-1 1zm-26 3c-.552285 0-1-.447715-1-1s.447715-1 1-1 1 .447715 1 1-.447715 1-1 1zm-4 0c-.552285 0-1-.447715-1-1s.447715-1 1-1 1 .447715 1 1-.447715 1-1 1zm8 0c-.552285 0-1-.447715-1-1s.447715-1 1-1 1 .447715 1 1-.447715 1-1 1zm4 0c-.552285 0-1-.447715-1-1s.447715-1 1-1 1 .447715 1 1-.447715 1-1 1zm4 0c-.552285 0-1-.447715-1-1s.447715-1 1-1 1 .447715 1 1-.447715 1-1 1zm4 0c-.552285 0-1-.447715-1-1s.447715-1 1-1 1 .447715 1 1-.447715 1-1 1zm4 0c-.552285 0-1-.447715-1-1s.447715-1 1-1 1 .447715 1 1-.447715 1-1 1zm4 0c-.552285 0-1-.447715-1-1s.447715-1 1-1 1 .447715 1 1-.447715 1-1 1zm4 0c-.552285 0-1-.447715-1-1s.447715-1 1-1 1 .447715 1 1-.447715 1-1 1zm-30 3c-.552285 0-1-.447715-1-1s.447715-1 1-1 1 .447715 1 1-.447715 1-1 1zm4 0c-.552285 0-1-.447715-1-1s.447715-1 1-1 1 .447715 1 1-.447715 1-1 1zm4 0c-.552285 0-1-.447715-1-1s.447715-1 1-1 1 .447715 1 1-.447715 1-1 1zm4 0c-.552285 0-1-.447715-1-1s.447715-1 1-1 1 .447715 1 1-.447715 1-1 1zm4 0c-.552285 0-1-.447715-1-1s.447715-1 1-1 1 .447715 1 1-.447715 1-1 1zm4 0c-.552285 0-1-.447715-1-1s.447715-1 1-1 1 .447715 1 1-.447715 1-1 1zm4 0c-.552285 0-1-.447715-1-1s.447715-1 1-1 1 .447715 1 1-.447715 1-1 1zm4 0c-.552285 0-1-.447715-1-1s.447715-1 1-1 1 .447715 1 1-.447715 1-1 1zm-26 3c-.552285 0-1-.447715-1-1s.447715-1 1-1 1 .447715 1 1-.447715 1-1 1zm-4 0c-.552285 0-1-.447715-1-1s.447715-1 1-1 1 .447715 1 1-.447715 1-1 1zm8 0c-.552285 0-1-.447715-1-1s.447715-1 1-1 1 .447715 1 1-.447715 1-1 1zm4 0c-.552285 0-1-.447715-1-1s.447715-1 1-1 1 .447715 1 1-.447715 1-1 1zm4 0c-.552285 0-1-.447715-1-1s.447715-1 1-1 1 .447715 1 1-.447715 1-1 1zm4 0c-.552285 0-1-.447715-1-1s.447715-1 1-1 1 .447715 1 1-.447715 1-1 1zm4 0c-.552285 0-1-.447715-1-1s.447715-1 1-1 1 .447715 1 1-.447715 1-1 1zm4 0c-.552285 0-1-.447715-1-1s.447715-1 1-1 1 .447715 1 1-.447715 1-1 1zm4 0c-.552285 0-1-.447715-1-1s.447715-1 1-1 1 .447715 1 1-.447715 1-1 1zm-30 3c-.552285 0-1-.447715-1-1s.447715-1 1-1 1 .447715 1 1-.447715 1-1 1zm4 0c-.552285 0-1-.447715-1-1s.447715-1 1-1 1 .447715 1 1-.447715 1-1 1zm4 0c-.552285 0-1-.447715-1-1s.447715-1 1-1 1 .447715 1 1-.447715 1-1 1zm4 0c-.552285 0-1-.447715-1-1s.447715-1 1-1 1 .447715 1 1-.447715 1-1 1zm4 0c-.552285 0-1-.447715-1-1s.447715-1 1-1 1 .447715 1 1-.447715 1-1 1zm4 0c-.552285 0-1-.447715-1-1s.447715-1 1-1 1 .447715 1 1-.447715 1-1 1zm4 0c-.552285 0-1-.447715-1-1s.447715-1 1-1 1 .447715 1 1-.447715 1-1 1zm4 0c-.552285 0-1-.447715-1-1s.447715-1 1-1 1 .447715 1 1-.447715 1-1 1z" fill="#3E3E3E"/>
      <path d="M69.888978 9.58839c1.056-.89 2.633-.755 3.522.301.89 1.055.756 2.633-.3 3.522-1.056.89-2.633.755-3.523-.301-.889-1.055-.755-2.632.301-3.522zM74 11.5V3l5 2" stroke="#3E3E3E" stroke-width="2" stroke-linecap="round" stroke-linejoin="round"/>
      <path d="M79.888978 32.41139c1.056.89 2.633.755 3.522-.301.89-1.055.756-2.633-.3-3.522-1.056-.89-2.633-.755-3.523.301-.889 1.055-.755 2.632.301 3.522zM79 30.49978v8.5" stroke="#3E3E3E" stroke-width="2" stroke-linecap="round" stroke-linejoin="round"/>
      <path d="M7.888978 17.58839c1.056-.89 2.633-.755 3.522.301.89 1.055.756 2.633-.3 3.522-1.056.89-2.633.755-3.523-.301-.889-1.055-.755-2.632.301-3.522zM12 19.5V11l7 3m-4.111022 6.58839c1.056-.89 2.633-.755 3.522.301.89 1.055.756 2.633-.3 3.522-1.056.89-2.633.755-3.523-.301-.889-1.055-.755-2.632.301-3.522zM19 22.5V14" stroke="#3E3E3E" stroke-width="2" stroke-linecap="round" stroke-linejoin="round"/>
      <path d="M.888978 48.58839c1.056-.89 2.633-.755 3.522.301.89 1.055.756 2.633-.3 3.522-1.056.89-2.633.755-3.523-.301-.889-1.055-.755-2.632.301-3.522zM5 50.5V42l5 2" stroke="#3E3E3E" stroke-width="2" stroke-linecap="round" stroke-linejoin="round"/>
    </g>
  </g>
</svg>