<svg viewBox="0 0 140 86" xmlns="http://www.w3.org/2000/svg">
  <g fill="none" fill-rule="evenodd">
    <path fill="#F3F3F3" d="M11 76V1h118v75"/>
    <path fill="#E8DEC7" d="M15 5h110v67H15z"/>
    <path d="M1 76h138v6c0 1.66-1.34 3-3 3H4c-1.66 0-3-1.34-3-3v-6z" fill="#F3F3F3"/>
    <path stroke="#3E3E3E" stroke-width="2" stroke-linecap="round" stroke-linejoin="round" d="M11 76V1h118v75"/>
    <path stroke="#3E3E3E" stroke-width="2" stroke-linecap="round" stroke-linejoin="round" stroke-dasharray="90 9 200 6" d="M15 5h110v67H15z"/>
    <path d="M1 76h138v6c0 1.66-1.34 3-3 3H4c-1.66 0-3-1.34-3-3v-6z" stroke="#3E3E3E" stroke-width="2" stroke-linecap="round" stroke-linejoin="round"/>
    <path d="M125.5 80.5h7" stroke="#3E3E3E" stroke-width="2" stroke-linecap="round" stroke-linejoin="round"/>
    <g stroke="#3E3E3E" stroke-width="2" stroke-linecap="round" stroke-linejoin="round">
      <path d="M51 54L37 39l14-15"/>
      <path d="M89 24l14 15-14 15"/>
      <path d="M59 60l22-43"/>
    </g>
    <path d="M52 76h36c0 1.66-1.34 3-3 3H55c-1.66 0-3-1.34-3-3z" stroke="#3E3E3E" stroke-width="2" stroke-linecap="round" stroke-linejoin="round"/>
  </g>
</svg>