<svg id="playing" viewBox="0 0 48 48" version="1.1"
     xmlns="http://www.w3.org/2000/svg">
  <!-- Generator: Sketch 43.2 (39069) - http://www.bohemiancoding.com/sketch -->
  <path fill-rule="evenodd"
        d="M11.0323396,17.540004 L11.0323396,15.5375487 C11.0323396,14.9863154 10.5850915,14.540004 10.033383,14.540004 L9.03129615,14.540004 C8.47499992,14.540004 8.03233959,14.98662 8.03233959,15.5375487 L8.03233959,17.540004 L6.02988424,17.540004 C5.47865099,17.540004 5.03233959,17.9872521 5.03233959,18.5389606 L5.03233959,19.5410475 C5.03233959,20.0973437 5.47895554,20.540004 6.02988424,20.540004 L8.03233959,20.540004 L8.03233959,22.5424594 C8.03233959,23.0936926 8.47958768,23.540004 9.03129615,23.540004 L10.033383,23.540004 C10.5896793,23.540004 11.0323396,23.0933881 11.0323396,22.5424594 L11.0323396,20.540004 L13.0347949,20.540004 C13.5860282,20.540004 14.0323396,20.0927559 14.0323396,19.5410475 L14.0323396,18.5389606 C14.0323396,17.9826644 13.5857236,17.540004 13.0347949,17.540004 L11.0323396,17.540004 Z M33.4415818,29.1393325 C32.6954879,29.7179678 31.7728813,30.0600228 30.7741992,30.0600228 C29.1105726,30.0600228 27.6580528,29.110833 26.88092,27.7000201 L21.1837592,27.7000201 C20.4066264,29.110833 18.9541066,30.0600228 17.29048,30.0600228 C16.2917979,30.0600228 15.3691913,29.7179678 14.6230974,29.1393325 C12.3944592,33.9438375 9.09906607,38.3456076 5.05435794,37.9917415 C-2.39115172,37.3403438 2.62102119,21.8862612 3.00825893,17.4601135 C3.22452183,14.9882173 4.45022529,12.868019 6.20159442,11.539881 C6.53716823,10.6407792 7.40711213,10 8.41583971,10 L12.6814012,10 C13.7493239,10 14.6517013,10.7021556 14.9437736,11.6770046 C15.1994842,11.887599 15.4415331,12.1158671 15.6685246,12.3600027 L32.3961546,12.3600027 C32.6238316,12.1151299 32.8666571,11.8862204 33.1232227,11.6750971 C33.4189174,10.7057122 34.3246741,10 35.383278,10 L39.6488395,10 C40.6669415,10 41.5345839,10.6381699 41.866395,11.5423927 C43.6159982,12.8706912 44.8402936,14.989775 45.0564202,17.4601135 C45.443658,21.8862612 50.4558309,37.3403438 43.0103212,37.9917415 C38.9656131,38.3456076 35.67022,33.9438375 33.4415818,29.1393325 Z M38.0778804,17.080008 C39.0087369,17.080008 39.7633453,16.2875512 39.7633453,15.310006 C39.7633453,14.3324609 39.0087369,13.540004 38.0778804,13.540004 C37.1470238,13.540004 36.3924155,14.3324609 36.3924155,15.310006 C36.3924155,16.2875512 37.1470238,17.080008 38.0778804,17.080008 Z M34.7069506,20.6200121 C35.6378071,20.6200121 36.3924155,19.8275552 36.3924155,18.8500101 C36.3924155,17.8724649 35.6378071,17.080008 34.7069506,17.080008 C33.776094,17.080008 33.0214857,17.8724649 33.0214857,18.8500101 C33.0214857,19.8275552 33.776094,20.6200121 34.7069506,20.6200121 Z M38.0778804,24.1600161 C39.0087369,24.1600161 39.7633453,23.3675592 39.7633453,22.3900141 C39.7633453,21.412469 39.0087369,20.6200121 38.0778804,20.6200121 C37.1470238,20.6200121 36.3924155,21.412469 36.3924155,22.3900141 C36.3924155,23.3675592 37.1470238,24.1600161 38.0778804,24.1600161 Z M41.4488102,20.6200121 C42.3796667,20.6200121 43.134275,19.8275552 43.134275,18.8500101 C43.134275,17.8724649 42.3796667,17.080008 41.4488102,17.080008 C40.5179536,17.080008 39.7633453,17.8724649 39.7633453,18.8500101 C39.7633453,19.8275552 40.5179536,20.6200121 41.4488102,20.6200121 Z"/>
</svg>