<svg id="reading" viewBox="0 0 48 48" version="1.1"
     xmlns="http://www.w3.org/2000/svg">
  <!-- Generator: Sketch 43.2 (39069) - http://www.bohemiancoding.com/sketch -->
  <path fill-rule="evenodd"
        d="M24,40 L24,40 L24,42 C33.1666667,34.4651163 46,36.3488372 46,36.3488372 L46,9.16425121 L46.0117188,9.16232639 C46.5575314,9.072676 47,9.45067901 47,10.0055474 L47,38.2166748 C47,38.7720233 46.5610822,39.294315 46.0117188,39.3845486 L24.9882812,42.8376736 C24.4424686,42.927324 23.5610822,42.9279072 23.0117187,42.8376736 L1.98828125,39.3845486 C1.44246859,39.2948982 1,38.7715432 1,38.2166748 L1,10.0055474 C1,9.45019891 1.43891776,9.07209277 1.98828125,9.16232639 L2,9.16425121 L2,36.3488372 C2,36.3488372 14.8333333,34.4651163 24,42 L24,40 Z M23,10.7700517 L23,39.235168 C14.3469991,33.0148639 3,34.6627907 3,34.6627907 L3,6.19767442 C3,6.19767442 14.3469991,4.54974764 23,10.7700517 Z M25,39.235168 L25,10.7700517 C33.6530009,4.54974764 45,6.19767442 45,6.19767442 L45,34.6627907 C45,34.6627907 33.6530009,33.0148639 25,39.235168 Z"/>
</svg>