<svg id="social-dribbble" viewBox="0 0 48 48" version="1.1" 
     xmlns="http://www.w3.org/2000/svg">
  <!-- Generator: Sketch 42 (36781) - http://www.bohemiancoding.com/sketch -->
  <path class="palette palette--1" fill-rule="evenodd"
        d="M34.9773035,40.2902581 C34.7771506,39.1057087 33.7304051,33.3398201 31.1527606,26.2622729 C37.4954431,25.2481039 42.9888281,26.9870657 43.3945434,27.1195837 C42.5209032,32.5933917 39.3860763,37.312658 34.9773035,40.2902581 L34.9773035,40.2902581 L34.9773035,40.2902581 Z M24.0013524,43.6437768 C19.2463691,43.6437768 14.8862821,41.9534952 11.486388,39.1408666 C11.7460457,39.3518137 11.9272652,39.4843318 11.9272652,39.4843318 C11.9272652,39.4843318 15.6923032,31.2736198 27.3417416,27.2142395 C27.3850179,27.1980128 27.430999,27.187195 27.4742753,27.1736728 C30.2385488,34.3539891 31.3772564,40.3686872 31.6693714,42.0860133 C29.313518,43.08666 26.7196449,43.6437768 24.0013524,43.6437768 L24.0013524,43.6437768 L24.0013524,43.6437768 Z M4.35661786,23.9986478 C4.35661786,23.7904051 4.36743694,23.5848668 4.37284647,23.3793286 C4.72176163,23.3874419 14.4264715,23.6065024 24.5396013,20.5802222 C25.1021932,21.6809336 25.6404422,22.8032806 26.1327101,23.9202187 C25.8730523,23.9905344 25.6160993,24.0689635 25.3591462,24.1555059 C14.759158,27.5793403 9.38207797,37.1152331 9.38207797,37.1152331 C9.38207797,37.1152331 9.39019227,37.1233465 9.39019227,37.1260509 C6.26077498,33.645423 4.35661786,29.0451526 4.35661786,23.9986478 L4.35661786,23.9986478 L4.35661786,23.9986478 Z M15.6192744,6.23852078 C15.881637,6.58739491 19.5141412,11.5121994 22.9140354,17.553942 C13.4825072,20.0609677 5.29517258,19.9609031 4.77856177,19.9527897 C6.05250779,13.8677759 10.1394132,8.82397554 15.6192744,6.23852078 L15.6192744,6.23852078 L15.6192744,6.23852078 Z M19.295055,4.9295667 C19.295055,4.93227115 19.2923502,4.9349756 19.2923502,4.9349756 C19.2923502,4.9349756 19.2680073,4.9403845 19.2328453,4.9457934 C19.2544834,4.9403845 19.2734168,4.93768005 19.295055,4.9295667 L19.295055,4.9295667 L19.295055,4.9295667 Z M36.9734227,9.26209654 C36.9247369,9.3351167 34.1280061,13.5946264 26.7115305,16.3720971 C23.3549127,10.2032453 19.6656083,5.30278088 19.3707885,4.91334 C20.8557065,4.55364807 22.4055389,4.35892763 24.0013524,4.35892763 C28.9727171,4.35892763 33.5140236,6.21418073 36.9734227,9.26209654 L36.9734227,9.26209654 L36.9734227,9.26209654 Z M43.6379726,23.8039273 C43.3539719,23.741725 36.7056506,22.3110706 29.9572529,23.1602681 C29.8166049,22.8249162 29.6786617,22.4868599 29.5326042,22.1488036 C29.1241842,21.1860192 28.6833069,20.2340526 28.226201,19.2983127 C35.9834774,16.131401 39.1318281,11.5798107 39.1696948,11.5257217 C41.9231493,14.8711271 43.5919915,19.144159 43.6379726,23.8039273 L43.6379726,23.8039273 L43.6379726,23.8039273 Z M46.5347798,19.3713328 C46.2318457,17.8947028 45.7774446,16.4370039 45.1905098,15.0469163 C44.6170988,13.6838732 43.9003352,12.3695103 43.0699712,11.1416897 C42.2504263,9.92468693 41.3037573,8.77799988 40.2651261,7.73949086 C39.2237902,6.69827738 38.0796731,5.75442413 36.8598224,4.93227115 C35.6318575,4.09930037 34.3173399,3.38802987 32.9541365,2.80927744 C31.5638855,2.22511611 30.1087199,1.77076842 28.6319163,1.4705744 C27.1172458,1.15956258 25.5592991,1 24.0013524,1 C22.4407009,1 20.8827542,1.15956258 19.3680837,1.4705744 C17.8912801,1.77076842 16.4361145,2.22511611 15.0458635,2.80927744 C13.6826601,3.38802987 12.3681425,4.09930037 11.1374728,4.93227115 C9.92032692,5.75442413 8.7762098,6.69827738 7.73487388,7.73949086 C6.69624272,8.77799988 5.75227847,9.92468693 4.93002881,11.1416897 C4.09966484,12.3695103 3.38290116,13.6838732 2.80949021,15.0469163 C2.21985065,16.4370039 1.76815429,17.8947028 1.4652202,19.3713328 C1.15687658,20.8831207 1,22.4408842 1,23.9986478 C1,25.5618202 1.15687658,27.1195837 1.4652202,28.6340761 C1.76815429,30.1107061 2.21985065,31.5657005 2.80949021,32.9530837 C3.38290116,34.3161268 4.09966484,35.6358986 4.93002881,36.8637192 C5.75227847,38.080722 6.69624272,39.2220001 7.73487388,40.265918 C8.7762098,41.3044271 9.92032692,42.2455759 11.1374728,43.0704333 C12.3681425,43.9006996 13.6826601,44.6146746 15.0458635,45.1907226 C16.4361145,45.7802928 17.8912801,46.2292316 19.3680837,46.5294256 C20.8827542,46.8431419 22.4407009,47 24.0013524,47 C25.5592991,47 27.1172458,46.8431419 28.6319163,46.5294256 C30.1087199,46.2292316 31.5638855,45.7802928 32.9541365,45.1907226 C34.3173399,44.6146746 35.6318575,43.9006996 36.8598224,43.0704333 C38.0796731,42.2455759 39.2237902,41.3044271 40.2651261,40.265918 C41.3037573,39.2220001 42.2504263,38.080722 43.0699712,36.8637192 C43.9003352,35.6358986 44.6170988,34.3161268 45.1905098,32.9530837 C45.7774446,31.5657005 46.2318457,30.1107061 46.5347798,28.6340761 C46.8431234,27.1195837 47,25.5618202 47,23.9986478 C47,22.4408842 46.8431234,20.8831207 46.5347798,19.3713328 L46.5347798,19.3713328 L46.5347798,19.3713328 Z" id="Dribbble"/>
</svg>