<svg id="social-twitter" viewBox="0 0 48 48" version="1.1" 
     xmlns="http://www.w3.org/2000/svg">
  <!-- Generator: Sketch 42 (36781) - http://www.bohemiancoding.com/sketch -->
  <path class="palette palette--1" fill-rule="evenodd"
        d="M48,8.7352835 C46.2363092,9.53846154 44.3373833,10.0816179 42.3454834,10.3243048 C44.3796443,9.07620079 45.9404825,7.09714698 46.6758232,4.73961719 C44.7712625,5.89526905 42.6666667,6.73600578 40.4183835,7.18671 C38.6265188,5.22499097 36.0655045,4 33.2312027,4 C27.796443,4 23.3872161,8.5214879 23.3872161,14.0975081 C23.3872161,14.8891296 23.471738,15.6576381 23.6407818,16.3972553 C15.4562423,15.9754424 8.20144392,11.9595522 3.34143335,5.84326472 C2.49339672,7.33983388 2.00880437,9.07620079 2.00880437,10.9252438 C2.00880437,14.4268689 3.74713858,17.5182376 6.38985737,19.3297219 C4.77830604,19.2806067 3.25691143,18.8212351 1.92709984,18.0700614 L1.92709984,18.194294 C1.92709984,23.0884796 5.32206374,27.1708198 9.82989963,28.0953413 C9.00440218,28.3322499 8.13382638,28.4507042 7.2350766,28.4507042 C6.60116218,28.4507042 5.98133474,28.3900325 5.38122909,28.2715782 C6.63497095,32.2816901 10.2694136,35.2026002 14.5800317,35.2806067 C11.2104244,37.9906103 6.96178905,39.6056338 2.34970946,39.6056338 C1.55520338,39.6056338 0.769149498,39.5594077 0,39.4669556 C4.35851382,42.3271939 9.5368903,44 15.0956154,44 C33.2114809,44 43.1146329,28.6153846 43.1146329,15.2704948 C43.1146329,14.8313471 43.1061807,14.3921993 43.0892763,13.961719 C45.0135587,12.5373781 46.6842754,10.7605634 48,8.7352835"/>
</svg>