<svg id="social-github" viewBox="0 0 48 48" version="1.1" 
     xmlns="http://www.w3.org/2000/svg">
  <!-- Generator: Sketch 42 (36781) - http://www.bohemiancoding.com/sketch -->
  <path class="palette palette--1" fill-rule="evenodd"
        d="M23.9985,1 C10.746,1 0,11.7870921 0,25.096644 C0,35.7406712 6.876,44.7718301 16.4145,47.9584121 C17.6145,48.1797862 18.0525,47.4358488 18.0525,46.7973276 C18.0525,46.2250681 18.0315,44.7100863 18.0195,42.6996482 C11.343,44.1558981 9.9345,39.4693938 9.9345,39.4693938 C8.844,36.6864054 7.2705,35.9454799 7.2705,35.9454799 C5.091,34.4500754 7.4355,34.4801943 7.4355,34.4801943 C9.843,34.6503662 11.1105,36.9634994 11.1105,36.9634994 C13.2525,40.6455377 16.728,39.5823398 18.096,38.9649018 C18.3135,37.4077535 18.9345,36.3460615 19.62,35.7436831 C14.2905,35.1352808 8.688,33.0691228 8.688,23.8361671 C8.688,21.2052792 9.6225,19.0547881 11.1585,17.3696344 C10.911,16.7597262 10.0875,14.3110578 11.3925,10.9934585 C11.3925,10.9934585 13.4085,10.3459017 17.9925,13.4632101 C19.908,12.9285993 21.96,12.6620468 24.0015,12.6515052 C26.04,12.6620468 28.0935,12.9285993 30.0105,13.4632101 C34.5915,10.3459017 36.603,10.9934585 36.603,10.9934585 C37.9125,14.3110578 37.089,16.7597262 36.8415,17.3696344 C38.3805,19.0547881 39.309,21.2052792 39.309,23.8361671 C39.309,33.0917119 33.6975,35.1292571 28.3515,35.7256117 C29.2125,36.4695491 29.9805,37.9393525 29.9805,40.1877301 C29.9805,43.4089489 29.9505,46.0067059 29.9505,46.7973276 C29.9505,47.4418726 30.3825,48.1918338 31.6005,47.9554002 C41.13,44.7627944 48,35.7376593 48,25.096644 C48,11.7870921 37.254,1 23.9985,1"/>
</svg>