<svg id="social-linkedin" viewBox="0 0 48 48" version="1.1" 
     xmlns="http://www.w3.org/2000/svg">
  <!-- Generator: Sketch 42 (36781) - http://www.bohemiancoding.com/sketch -->
  <path class="palette palette--1"
        d="M46,44 L36.2753998,44 L36.2753998,29.9384005 C36.2753998,26.257796 34.7542333,23.7451495 31.4092192,23.7451495 C28.8506585,23.7451495 27.4277987,25.4407377 26.7655221,27.0748543 C26.5171684,27.6613946 26.5559737,28.478453 26.5559737,29.2955113 L26.5559737,44 L16.9219191,44 C16.9219191,44 17.046096,19.0912467 16.9219191,16.8270474 L26.5559737,16.8270474 L26.5559737,21.0916309 C27.1251176,19.2269962 30.2036689,16.5657937 35.1164158,16.5657937 C41.2114299,16.5657937 46,20.4743549 46,28.8908241 L46,44 L46,44 Z M7.17920978,13.4281872 L7.11712135,13.4281872 C4.01269991,13.4281872 2,11.3509637 2,8.71793558 C2,6.03368124 4.07220132,4 7.23871119,4 C10.4026341,4 12.3480715,6.02855862 12.4101599,8.71025165 C12.4101599,11.3432798 10.4026341,13.4281872 7.17920978,13.4281872 L7.17920978,13.4281872 L7.17920978,13.4281872 Z M3.10983067,16.8270474 L11.6857949,16.8270474 L11.6857949,44 L3.10983067,44 L3.10983067,16.8270474 L3.10983067,16.8270474 Z"/>
</svg>