<svg id="social-tumblr" viewBox="0 0 48 48" version="1.1" 
     xmlns="http://www.w3.org/2000/svg">
  <!-- Generator: Sketch 42 (36781) - http://www.bohemiancoding.com/sketch -->
  <path class="palette palette--1" fill-rule="evenodd"
        d="M35.7406584,38.3407377 C34.8671091,38.7664252 33.1965085,39.1367974 31.9507666,39.1686638 C28.1897087,39.2714782 27.4597404,36.4693359 27.4294354,34.4380008 L27.4294354,19.4953464 L36.8637092,19.4953464 L36.8637092,12.2273932 L27.4620942,12.2273932 L27.4620942,3.55271368e-15 L20.5822681,3.55271368e-15 C20.4689921,3.55271368e-15 20.271274,0.101311227 20.2433228,0.358347128 C19.8408251,4.10054935 18.127268,10.6686434 11,13.294919 L11,19.4950458 L15.7546504,19.4950458 L15.7546504,35.1778433 C15.7546504,40.5479395 19.6313381,48.1769455 29.8653111,47.99687 C33.318317,47.936444 37.153225,46.4597653 38,45.1848071 L35.7406584,38.3407377"/>
</svg>