<svg id="watching" viewBox="0 0 48 48" version="1.1"
     xmlns="http://www.w3.org/2000/svg">
  <!-- Generator: Sketch 43.2 (39069) - http://www.bohemiancoding.com/sketch -->  
  <path fill-rule="evenodd"
        d="M22,39 L22,35 L0,35 L0,9 L48,9 L48,35 L26,35 L26,39 L37,39 L37,40 L11,40 L11,39 L22,39 Z M1,10.5012741 L1,33.4987259 C1,33.7777346 1.2242713,34 1.50092396,34 L46.499076,34 C46.7741931,34 47,33.7755719 47,33.4987259 L47,10.5012741 C47,10.2222654 46.7757287,10 46.499076,10 L1.50092396,10 C1.22580686,10 1,10.2244281 1,10.5012741 Z"/>
</svg>