<?xml version="1.0" encoding="UTF-8"?>
<svg width="100px" height="72px" viewBox="0 0 100 72" version="1.1" xmlns="http://www.w3.org/2000/svg" xmlns:xlink="http://www.w3.org/1999/xlink">
    <!-- Generator: Sketch 46.2 (44496) - http://www.bohemiancoding.com/sketch -->
    <title>about-tv</title>
    <desc>Created with Sketch.</desc>
    <defs></defs>
    <g id="Symbols" stroke="none" stroke-width="1" fill="none" fill-rule="evenodd">
        <g id="about-tv">
            <g id="tv">
                <rect id="Rectangle" x="0" y="0" width="100" height="72"></rect>
                <g id="Group" transform="translate(1.000000, 1.000000)">
                    <path d="M70,59 L70,69" id="Line" stroke="#3E3E3E" stroke-width="2" stroke-linecap="round" stroke-linejoin="round"></path>
                    <path d="M28,59 L28,69" id="Line" stroke="#3E3E3E" stroke-width="2" stroke-linecap="round" stroke-linejoin="round"></path>
                    <path d="M21,70 L77,70" id="Line" stroke="#3E3E3E" stroke-width="2" stroke-linecap="round" stroke-linejoin="round"></path>
                    <rect id="Rectangle-colour" fill="#4D4D4D" x="0" y="0" width="98" height="58"></rect>
                    <rect id="Rectangle-colour" fill="#707070" x="3" y="3" width="92" height="50"></rect>
                    <polygon id="Rectangle-colour" fill="#F3F3F3" points="57.5 3 66.3314967 3 16 53 7 53"></polygon>
                    <polygon id="Rectangle-colour" fill="#F3F3F3" points="95 27 95 36 78 53 69 53"></polygon>
                    <path d="M16.5,52.5 L66,3 L16.5,52.5 Z M7.5,52.5 L57,3 L7.5,52.5 Z M78.5,52.5 L94.5078106,36.4921894 L78.5,52.5 Z M69.5,52.5 L94.5049995,27.4950005 L69.5,52.5 Z" id="Line" stroke="#3E3E3E" stroke-width="2" stroke-linecap="round" stroke-linejoin="round" stroke-dasharray="7,12,32"></path>
                    <rect id="Rectangle" stroke="#3E3E3E" stroke-width="2" stroke-linecap="round" stroke-linejoin="round" x="3" y="3" width="92" height="50"></rect>
                    <rect id="Rectangle" stroke="#3E3E3E" stroke-width="2" stroke-linecap="round" stroke-linejoin="round" x="0" y="0" width="98" height="58"></rect>
                </g>
            </g>
        </g>
    </g>
</svg>