<?xml version="1.0" encoding="UTF-8"?>
<svg width="100px" height="72px" viewBox="0 0 100 72" version="1.1" xmlns="http://www.w3.org/2000/svg" xmlns:xlink="http://www.w3.org/1999/xlink">
    <!-- Generator: Sketch 46.2 (44496) - http://www.bohemiancoding.com/sketch -->
    <title>about-music</title>
    <desc>Created with Sketch.</desc>
    <defs></defs>
    <g id="Symbols" stroke="none" stroke-width="1" fill="none" fill-rule="evenodd">
        <g id="about-music">
            <g id="music">
                <rect id="Rectangle" x="0" y="0" width="100" height="72"></rect>
                <g id="Group" transform="translate(6.000000, 5.000000)">
                    <rect id="Rectangle-colour" fill="#F3F3F3" x="27" y="0" width="34" height="66" rx="2"></rect>
                    <rect id="Rectangle" stroke="#3E3E3E" stroke-width="2" stroke-linecap="round" stroke-linejoin="round" stroke-dasharray="162,5,2,6" x="27" y="0" width="34" height="66" rx="2"></rect>
                    <path d="M27,9 L61,9" id="Line" stroke="#3E3E3E" stroke-width="2" stroke-linecap="round" stroke-linejoin="round" stroke-dasharray="20,8"></path>
                    <path d="M29,0 L59,0 L59,0 C60.1045695,-2.02906125e-16 61,0.8954305 61,2 L61,3 L27,3 L27,2 L27,2 C27,0.8954305 27.8954305,2.02906125e-16 29,0 Z" id="Rectangle-colour" fill="#FBCC21"></path>
                    <path d="M29,0 L59,0 L59,0 C60.1045695,-2.02906125e-16 61,0.8954305 61,2 L61,3 L27,3 L27,2 L27,2 C27,0.8954305 27.8954305,2.02906125e-16 29,0 Z" id="Rectangle" stroke="#3E3E3E" stroke-width="2" stroke-linecap="round" stroke-linejoin="round"></path>
                    <path d="M32,39 C31.4477153,39 31,38.5522847 31,38 C31,37.4477153 31.4477153,37 32,37 C32.5522847,37 33,37.4477153 33,38 C33,38.5522847 32.5522847,39 32,39 Z M28,39 C27.4477153,39 27,38.5522847 27,38 C27,37.4477153 27.4477153,37 28,37 C28.5522847,37 29,37.4477153 29,38 C29,38.5522847 28.5522847,39 28,39 Z M36,39 C35.4477153,39 35,38.5522847 35,38 C35,37.4477153 35.4477153,37 36,37 C36.5522847,37 37,37.4477153 37,38 C37,38.5522847 36.5522847,39 36,39 Z M40,39 C39.4477153,39 39,38.5522847 39,38 C39,37.4477153 39.4477153,37 40,37 C40.5522847,37 41,37.4477153 41,38 C41,38.5522847 40.5522847,39 40,39 Z M44,39 C43.4477153,39 43,38.5522847 43,38 C43,37.4477153 43.4477153,37 44,37 C44.5522847,37 45,37.4477153 45,38 C45,38.5522847 44.5522847,39 44,39 Z M48,39 C47.4477153,39 47,38.5522847 47,38 C47,37.4477153 47.4477153,37 48,37 C48.5522847,37 49,37.4477153 49,38 C49,38.5522847 48.5522847,39 48,39 Z M52,39 C51.4477153,39 51,38.5522847 51,38 C51,37.4477153 51.4477153,37 52,37 C52.5522847,37 53,37.4477153 53,38 C53,38.5522847 52.5522847,39 52,39 Z M56,39 C55.4477153,39 55,38.5522847 55,38 C55,37.4477153 55.4477153,37 56,37 C56.5522847,37 57,37.4477153 57,38 C57,38.5522847 56.5522847,39 56,39 Z M60,39 C59.4477153,39 59,38.5522847 59,38 C59,37.4477153 59.4477153,37 60,37 C60.5522847,37 61,37.4477153 61,38 C61,38.5522847 60.5522847,39 60,39 Z M30,42 C29.4477153,42 29,41.5522847 29,41 C29,40.4477153 29.4477153,40 30,40 C30.5522847,40 31,40.4477153 31,41 C31,41.5522847 30.5522847,42 30,42 Z M34,42 C33.4477153,42 33,41.5522847 33,41 C33,40.4477153 33.4477153,40 34,40 C34.5522847,40 35,40.4477153 35,41 C35,41.5522847 34.5522847,42 34,42 Z M38,42 C37.4477153,42 37,41.5522847 37,41 C37,40.4477153 37.4477153,40 38,40 C38.5522847,40 39,40.4477153 39,41 C39,41.5522847 38.5522847,42 38,42 Z M42,42 C41.4477153,42 41,41.5522847 41,41 C41,40.4477153 41.4477153,40 42,40 C42.5522847,40 43,40.4477153 43,41 C43,41.5522847 42.5522847,42 42,42 Z M46,42 C45.4477153,42 45,41.5522847 45,41 C45,40.4477153 45.4477153,40 46,40 C46.5522847,40 47,40.4477153 47,41 C47,41.5522847 46.5522847,42 46,42 Z M50,42 C49.4477153,42 49,41.5522847 49,41 C49,40.4477153 49.4477153,40 50,40 C50.5522847,40 51,40.4477153 51,41 C51,41.5522847 50.5522847,42 50,42 Z M54,42 C53.4477153,42 53,41.5522847 53,41 C53,40.4477153 53.4477153,40 54,40 C54.5522847,40 55,40.4477153 55,41 C55,41.5522847 54.5522847,42 54,42 Z M58,42 C57.4477153,42 57,41.5522847 57,41 C57,40.4477153 57.4477153,40 58,40 C58.5522847,40 59,40.4477153 59,41 C59,41.5522847 58.5522847,42 58,42 Z M32,45 C31.4477153,45 31,44.5522847 31,44 C31,43.4477153 31.4477153,43 32,43 C32.5522847,43 33,43.4477153 33,44 C33,44.5522847 32.5522847,45 32,45 Z M28,45 C27.4477153,45 27,44.5522847 27,44 C27,43.4477153 27.4477153,43 28,43 C28.5522847,43 29,43.4477153 29,44 C29,44.5522847 28.5522847,45 28,45 Z M36,45 C35.4477153,45 35,44.5522847 35,44 C35,43.4477153 35.4477153,43 36,43 C36.5522847,43 37,43.4477153 37,44 C37,44.5522847 36.5522847,45 36,45 Z M40,45 C39.4477153,45 39,44.5522847 39,44 C39,43.4477153 39.4477153,43 40,43 C40.5522847,43 41,43.4477153 41,44 C41,44.5522847 40.5522847,45 40,45 Z M44,45 C43.4477153,45 43,44.5522847 43,44 C43,43.4477153 43.4477153,43 44,43 C44.5522847,43 45,43.4477153 45,44 C45,44.5522847 44.5522847,45 44,45 Z M48,45 C47.4477153,45 47,44.5522847 47,44 C47,43.4477153 47.4477153,43 48,43 C48.5522847,43 49,43.4477153 49,44 C49,44.5522847 48.5522847,45 48,45 Z M52,45 C51.4477153,45 51,44.5522847 51,44 C51,43.4477153 51.4477153,43 52,43 C52.5522847,43 53,43.4477153 53,44 C53,44.5522847 52.5522847,45 52,45 Z M56,45 C55.4477153,45 55,44.5522847 55,44 C55,43.4477153 55.4477153,43 56,43 C56.5522847,43 57,43.4477153 57,44 C57,44.5522847 56.5522847,45 56,45 Z M60,45 C59.4477153,45 59,44.5522847 59,44 C59,43.4477153 59.4477153,43 60,43 C60.5522847,43 61,43.4477153 61,44 C61,44.5522847 60.5522847,45 60,45 Z M30,48 C29.4477153,48 29,47.5522847 29,47 C29,46.4477153 29.4477153,46 30,46 C30.5522847,46 31,46.4477153 31,47 C31,47.5522847 30.5522847,48 30,48 Z M34,48 C33.4477153,48 33,47.5522847 33,47 C33,46.4477153 33.4477153,46 34,46 C34.5522847,46 35,46.4477153 35,47 C35,47.5522847 34.5522847,48 34,48 Z M38,48 C37.4477153,48 37,47.5522847 37,47 C37,46.4477153 37.4477153,46 38,46 C38.5522847,46 39,46.4477153 39,47 C39,47.5522847 38.5522847,48 38,48 Z M42,48 C41.4477153,48 41,47.5522847 41,47 C41,46.4477153 41.4477153,46 42,46 C42.5522847,46 43,46.4477153 43,47 C43,47.5522847 42.5522847,48 42,48 Z M46,48 C45.4477153,48 45,47.5522847 45,47 C45,46.4477153 45.4477153,46 46,46 C46.5522847,46 47,46.4477153 47,47 C47,47.5522847 46.5522847,48 46,48 Z M50,48 C49.4477153,48 49,47.5522847 49,47 C49,46.4477153 49.4477153,46 50,46 C50.5522847,46 51,46.4477153 51,47 C51,47.5522847 50.5522847,48 50,48 Z M54,48 C53.4477153,48 53,47.5522847 53,47 C53,46.4477153 53.4477153,46 54,46 C54.5522847,46 55,46.4477153 55,47 C55,47.5522847 54.5522847,48 54,48 Z M58,48 C57.4477153,48 57,47.5522847 57,47 C57,46.4477153 57.4477153,46 58,46 C58.5522847,46 59,46.4477153 59,47 C59,47.5522847 58.5522847,48 58,48 Z M32,51 C31.4477153,51 31,50.5522847 31,50 C31,49.4477153 31.4477153,49 32,49 C32.5522847,49 33,49.4477153 33,50 C33,50.5522847 32.5522847,51 32,51 Z M28,51 C27.4477153,51 27,50.5522847 27,50 C27,49.4477153 27.4477153,49 28,49 C28.5522847,49 29,49.4477153 29,50 C29,50.5522847 28.5522847,51 28,51 Z M36,51 C35.4477153,51 35,50.5522847 35,50 C35,49.4477153 35.4477153,49 36,49 C36.5522847,49 37,49.4477153 37,50 C37,50.5522847 36.5522847,51 36,51 Z M40,51 C39.4477153,51 39,50.5522847 39,50 C39,49.4477153 39.4477153,49 40,49 C40.5522847,49 41,49.4477153 41,50 C41,50.5522847 40.5522847,51 40,51 Z M44,51 C43.4477153,51 43,50.5522847 43,50 C43,49.4477153 43.4477153,49 44,49 C44.5522847,49 45,49.4477153 45,50 C45,50.5522847 44.5522847,51 44,51 Z M48,51 C47.4477153,51 47,50.5522847 47,50 C47,49.4477153 47.4477153,49 48,49 C48.5522847,49 49,49.4477153 49,50 C49,50.5522847 48.5522847,51 48,51 Z M52,51 C51.4477153,51 51,50.5522847 51,50 C51,49.4477153 51.4477153,49 52,49 C52.5522847,49 53,49.4477153 53,50 C53,50.5522847 52.5522847,51 52,51 Z M56,51 C55.4477153,51 55,50.5522847 55,50 C55,49.4477153 55.4477153,49 56,49 C56.5522847,49 57,49.4477153 57,50 C57,50.5522847 56.5522847,51 56,51 Z M60,51 C59.4477153,51 59,50.5522847 59,50 C59,49.4477153 59.4477153,49 60,49 C60.5522847,49 61,49.4477153 61,50 C61,50.5522847 60.5522847,51 60,51 Z M30,54 C29.4477153,54 29,53.5522847 29,53 C29,52.4477153 29.4477153,52 30,52 C30.5522847,52 31,52.4477153 31,53 C31,53.5522847 30.5522847,54 30,54 Z M34,54 C33.4477153,54 33,53.5522847 33,53 C33,52.4477153 33.4477153,52 34,52 C34.5522847,52 35,52.4477153 35,53 C35,53.5522847 34.5522847,54 34,54 Z M38,54 C37.4477153,54 37,53.5522847 37,53 C37,52.4477153 37.4477153,52 38,52 C38.5522847,52 39,52.4477153 39,53 C39,53.5522847 38.5522847,54 38,54 Z M42,54 C41.4477153,54 41,53.5522847 41,53 C41,52.4477153 41.4477153,52 42,52 C42.5522847,52 43,52.4477153 43,53 C43,53.5522847 42.5522847,54 42,54 Z M46,54 C45.4477153,54 45,53.5522847 45,53 C45,52.4477153 45.4477153,52 46,52 C46.5522847,52 47,52.4477153 47,53 C47,53.5522847 46.5522847,54 46,54 Z M50,54 C49.4477153,54 49,53.5522847 49,53 C49,52.4477153 49.4477153,52 50,52 C50.5522847,52 51,52.4477153 51,53 C51,53.5522847 50.5522847,54 50,54 Z M54,54 C53.4477153,54 53,53.5522847 53,53 C53,52.4477153 53.4477153,52 54,52 C54.5522847,52 55,52.4477153 55,53 C55,53.5522847 54.5522847,54 54,54 Z M58,54 C57.4477153,54 57,53.5522847 57,53 C57,52.4477153 57.4477153,52 58,52 C58.5522847,52 59,52.4477153 59,53 C59,53.5522847 58.5522847,54 58,54 Z M32,57 C31.4477153,57 31,56.5522847 31,56 C31,55.4477153 31.4477153,55 32,55 C32.5522847,55 33,55.4477153 33,56 C33,56.5522847 32.5522847,57 32,57 Z M28,57 C27.4477153,57 27,56.5522847 27,56 C27,55.4477153 27.4477153,55 28,55 C28.5522847,55 29,55.4477153 29,56 C29,56.5522847 28.5522847,57 28,57 Z M36,57 C35.4477153,57 35,56.5522847 35,56 C35,55.4477153 35.4477153,55 36,55 C36.5522847,55 37,55.4477153 37,56 C37,56.5522847 36.5522847,57 36,57 Z M40,57 C39.4477153,57 39,56.5522847 39,56 C39,55.4477153 39.4477153,55 40,55 C40.5522847,55 41,55.4477153 41,56 C41,56.5522847 40.5522847,57 40,57 Z M44,57 C43.4477153,57 43,56.5522847 43,56 C43,55.4477153 43.4477153,55 44,55 C44.5522847,55 45,55.4477153 45,56 C45,56.5522847 44.5522847,57 44,57 Z M48,57 C47.4477153,57 47,56.5522847 47,56 C47,55.4477153 47.4477153,55 48,55 C48.5522847,55 49,55.4477153 49,56 C49,56.5522847 48.5522847,57 48,57 Z M52,57 C51.4477153,57 51,56.5522847 51,56 C51,55.4477153 51.4477153,55 52,55 C52.5522847,55 53,55.4477153 53,56 C53,56.5522847 52.5522847,57 52,57 Z M56,57 C55.4477153,57 55,56.5522847 55,56 C55,55.4477153 55.4477153,55 56,55 C56.5522847,55 57,55.4477153 57,56 C57,56.5522847 56.5522847,57 56,57 Z M60,57 C59.4477153,57 59,56.5522847 59,56 C59,55.4477153 59.4477153,55 60,55 C60.5522847,55 61,55.4477153 61,56 C61,56.5522847 60.5522847,57 60,57 Z M30,60 C29.4477153,60 29,59.5522847 29,59 C29,58.4477153 29.4477153,58 30,58 C30.5522847,58 31,58.4477153 31,59 C31,59.5522847 30.5522847,60 30,60 Z M34,60 C33.4477153,60 33,59.5522847 33,59 C33,58.4477153 33.4477153,58 34,58 C34.5522847,58 35,58.4477153 35,59 C35,59.5522847 34.5522847,60 34,60 Z M38,60 C37.4477153,60 37,59.5522847 37,59 C37,58.4477153 37.4477153,58 38,58 C38.5522847,58 39,58.4477153 39,59 C39,59.5522847 38.5522847,60 38,60 Z M42,60 C41.4477153,60 41,59.5522847 41,59 C41,58.4477153 41.4477153,58 42,58 C42.5522847,58 43,58.4477153 43,59 C43,59.5522847 42.5522847,60 42,60 Z M46,60 C45.4477153,60 45,59.5522847 45,59 C45,58.4477153 45.4477153,58 46,58 C46.5522847,58 47,58.4477153 47,59 C47,59.5522847 46.5522847,60 46,60 Z M50,60 C49.4477153,60 49,59.5522847 49,59 C49,58.4477153 49.4477153,58 50,58 C50.5522847,58 51,58.4477153 51,59 C51,59.5522847 50.5522847,60 50,60 Z M54,60 C53.4477153,60 53,59.5522847 53,59 C53,58.4477153 53.4477153,58 54,58 C54.5522847,58 55,58.4477153 55,59 C55,59.5522847 54.5522847,60 54,60 Z M58,60 C57.4477153,60 57,59.5522847 57,59 C57,58.4477153 57.4477153,58 58,58 C58.5522847,58 59,58.4477153 59,59 C59,59.5522847 58.5522847,60 58,60 Z" id="Shape" fill="#3E3E3E"></path>
                    <path d="M69.8889782,9.58838982 C70.9449782,8.69838982 72.5219782,8.83338982 73.4109782,9.88938982 C74.3009782,10.9443898 74.1669782,12.5223898 73.1109782,13.4113898 C72.0549782,14.3013898 70.4779782,14.1663898 69.5879782,13.1103898 C68.6989782,12.0553898 68.8329782,10.4783898 69.8889782,9.58838982 Z M74,11.5 L74,3 L79,5" id="Shape" stroke="#3E3E3E" stroke-width="2" stroke-linecap="round" stroke-linejoin="round"></path>
                    <path d="M79.8889782,34.5883898 C80.9449782,33.6983898 82.5219782,33.8333898 83.4109782,34.8893898 C84.3009782,35.9443898 84.1669782,37.5223898 83.1109782,38.4113898 C82.0549782,39.3013898 80.4779782,39.1663898 79.5879782,38.1103898 C78.6989782,37.0553898 78.8329782,35.4783898 79.8889782,34.5883898 Z M79,36.5 L79,28" id="Shape" stroke="#3E3E3E" stroke-width="2" stroke-linecap="round" stroke-linejoin="round" transform="translate(80.999892, 33.499890) scale(1, -1) translate(-80.999892, -33.499890) "></path>
                    <path d="M7.88897816,17.5883898 C8.94497816,16.6983898 10.5219782,16.8333898 11.4109782,17.8893898 C12.3009782,18.9443898 12.1669782,20.5223898 11.1109782,21.4113898 C10.0549782,22.3013898 8.47797816,22.1663898 7.58797816,21.1103898 C6.69897816,20.0553898 6.83297816,18.4783898 7.88897816,17.5883898 Z M12,19.5 L12,11 L19,14 M14.8889782,20.5883898 C15.9449782,19.6983898 17.5219782,19.8333898 18.4109782,20.8893898 C19.3009782,21.9443898 19.1669782,23.5223898 18.1109782,24.4113898 C17.0549782,25.3013898 15.4779782,25.1663898 14.5879782,24.1103898 C13.6989782,23.0553898 13.8329782,21.4783898 14.8889782,20.5883898 Z M19,22.5 L19,14" id="Shape" stroke="#3E3E3E" stroke-width="2" stroke-linecap="round" stroke-linejoin="round"></path>
                    <path d="M0.888978164,48.5883898 C1.94497816,47.6983898 3.52197816,47.8333898 4.41097816,48.8893898 C5.30097816,49.9443898 5.16697816,51.5223898 4.11097816,52.4113898 C3.05497816,53.3013898 1.47797816,53.1663898 0.587978164,52.1103898 C-0.301021836,51.0553898 -0.167021836,49.4783898 0.888978164,48.5883898 Z M5,50.5 L5,42 L10,44" id="Shape" stroke="#3E3E3E" stroke-width="2" stroke-linecap="round" stroke-linejoin="round"></path>
                </g>
            </g>
        </g>
    </g>
</svg>