<?xml version="1.0" encoding="UTF-8"?>
<svg width="140px" height="86px" viewBox="0 0 140 86" version="1.1" xmlns="http://www.w3.org/2000/svg" xmlns:xlink="http://www.w3.org/1999/xlink">
    <!-- Generator: Sketch 46 (44423) - http://www.bohemiancoding.com/sketch -->
    <title>frontend-developer</title>
    <desc>Created with Sketch.</desc>
    <defs></defs>
    <g id="About-page" stroke="none" stroke-width="1" fill="none" fill-rule="evenodd">
        <g id="frontend-developer">
            <g id="colours" transform="translate(1.000000, 1.000000)">
                <polyline id="Rectangle-2" fill="#F3F3F3" points="10 75 10 0 10 0 128 0 128 75"></polyline>
                <rect id="Rectangle-2" fill="#E8DEC7" x="14" y="4" width="110" height="67"></rect>
                <path d="M0,75 L138,75 L138,81 L138,81 C138,82.6568542 136.656854,84 135,84 L135,84 L3,84 L3,84 L3,84 C1.34314575,84 -9.90046945e-16,82.6568542 -2.66453526e-15,81 L0,75 Z" id="Rectangle-3" fill="#F3F3F3"></path>
            </g>
            <polyline id="Rectangle-2" stroke="#3E3E3E" stroke-width="2" stroke-linecap="round" stroke-linejoin="round" points="11 76 11 1 11 1 129 1 129 76"></polyline>
            <rect id="Rectangle-2" stroke="#3E3E3E" stroke-width="2" stroke-linecap="round" stroke-linejoin="round" stroke-dasharray="90,9,200,6" x="15" y="5" width="110" height="67"></rect>
            <path d="M1,76 L139,76 L139,82 L139,82 C139,83.6568542 137.656854,85 136,85 L136,85 L4,85 L4,85 L4,85 C2.34314575,85 1,83.6568542 1,82 L1,76 Z" id="Rectangle-3" stroke="#3E3E3E" stroke-width="2" stroke-linecap="round" stroke-linejoin="round"></path>
            <path d="M125.5,80.5 L132.5,80.5" id="Line" stroke="#3E3E3E" stroke-width="2" stroke-linecap="round" stroke-linejoin="round"></path>
            <g id="Code" transform="translate(37.000000, 17.000000)" stroke="#000000" stroke-width="2" stroke-linecap="round" stroke-linejoin="round">
                <polyline id="Triangle" points="14 37 0 22 14 7"></polyline>
                <polyline id="Triangle-Copy" points="52 7 66 22 52 37"></polyline>
                <path d="M22,43 L44,3.55271368e-15" id="Line-2"></path>
            </g>
            <path d="M52,76 L88,76 L88,76 L88,76 C88,77.6568542 86.6568542,79 85,79 L55,79 L55,79 C53.3431458,79 52,77.6568542 52,76 L52,76 Z" id="Rectangle-4" stroke="#000000" stroke-width="2" stroke-linecap="round" stroke-linejoin="round"></path>
        </g>
    </g>
</svg>