<?xml version="1.0" encoding="UTF-8"?>
<svg width="140px" height="86px" viewBox="0 0 140 86" version="1.1" xmlns="http://www.w3.org/2000/svg" xmlns:xlink="http://www.w3.org/1999/xlink">
    <!-- Generator: Sketch 46 (44423) - http://www.bohemiancoding.com/sketch -->
    <title>ux-ui</title>
    <desc>Created with Sketch.</desc>
    <defs></defs>
    <g id="About-page" stroke="none" stroke-width="1" fill="none" fill-rule="evenodd">
        <g id="ux-ui">
            <g id="colours" transform="translate(1.000000, 1.000000)">
                <path d="M4,0 L134,0 L134,0 C136.209139,-4.05812251e-16 138,1.790861 138,4 L138,7 L0,7 L0,4 L0,4 C-2.705415e-16,1.790861 1.790861,4.05812251e-16 4,0 Z" id="Rectangle-5" fill="#FFFFFF"></path>
                <path d="M0,7 L35,7 L35,84 L4,84 L4,84 C1.790861,84 2.705415e-16,82.209139 0,80 L0,7 Z" id="Rectangle-5" fill="#E8DEC7"></path>
                <path d="M35,7 L138,7 L138,80 L138,80 C138,82.209139 136.209139,84 134,84 L35,84 L35,7 Z" id="Rectangle-7" fill="#F3F3F3"></path>
                <circle id="Oval" fill="#FC605C" cx="4.5" cy="3.5" r="1.5"></circle>
                <circle id="Oval-Copy" fill="#FDBC40" cx="8.5" cy="3.5" r="1.5"></circle>
                <circle id="Oval-Copy-2" fill="#34C749" cx="12.5" cy="3.5" r="1.5"></circle>
                <rect id="Rectangle-6" stroke="#FBCC21" stroke-width="2" fill="#FBCC21" stroke-linecap="round" stroke-linejoin="round" x="48" y="24" width="20" height="20"></rect>
            </g>
            <rect id="Rectangle-5" stroke="#3E3E3E" stroke-width="2" stroke-linecap="round" stroke-linejoin="round" x="1" y="1" width="138" height="84" rx="4"></rect>
            <path d="M1,8 L139,8" id="Line-3" stroke="#3E3E3E" stroke-width="2" stroke-linecap="round" stroke-linejoin="round"></path>
            <path d="M48,54 L108,54" id="Line-5" stroke="#3E3E3E" stroke-width="2" stroke-linecap="round" stroke-linejoin="round"></path>
            <path d="M48,59 L103,59" id="Line-5-Copy" stroke="#3E3E3E" stroke-width="2" stroke-linecap="round" stroke-linejoin="round"></path>
            <path d="M48,64 L106,64" id="Line-5-Copy-2" stroke="#3E3E3E" stroke-width="2" stroke-linecap="round" stroke-linejoin="round"></path>
            <path d="M48,69 L88,69" id="Line-5-Copy-3" stroke="#3E3E3E" stroke-width="2" stroke-linecap="round" stroke-linejoin="round"></path>
            <path d="M36,9 L36,85" id="Line-4" stroke="#3E3E3E" stroke-width="2" stroke-linecap="round" stroke-linejoin="round" stroke-dasharray="8,10,62"></path>
        </g>
    </g>
</svg>