<svg viewBox="0 0 48 48" xmlns="http://www.w3.org/2000/svg">
  <path d="M25.638355 48H2.649232C1.185672 48 0 46.813592 0 45.350603V2.64921C0 1.18585 1.18586 0 2.649232 0h42.701723C46.813955 0 48 1.18585 48 2.64921v42.701393C48 46.813778 46.81377 48 45.350955 48h-12.23165V29.411755h6.239216l.934237-7.24417h-7.17345V17.54264c0-2.097352.582407-3.52663 3.589985-3.52663l3.83602-.001676V7.53509c-.663423-.088282-2.940525-.28552-5.589757-.28552-5.530718 0-9.317197 3.375956-9.317197 9.57564v5.342376h-6.255233v7.24417h6.255233V48z" fill-rule="evenodd"/>
</svg>