<svg id="getignited-full" viewBox="0 0 762 196"
     xmlns="http://www.w3.org/2000/svg">
  <g id="getignited_icon">
    <path class="palette palette--1"
          d="M0,167.7l34.7,28.8V144.6L104,86.9V29.2L69.3.4V58.1L0,115.8ZM5.8,99.3V58.4L32.5,35.1V75.9Z"/>
    <polygon class="palette palette--1"
             points="40.1 196.5 69.2 150.4 69.2 127.3 104 98.4 104 145.7 40.1 196.5"/>
  </g>
  <g id="getignited_name">
    <path class="palette palette--2"
          d="M168,68.1a29.4,29.4,0,0,1,2.5-12.4,26,26,0,0,1,6.6-8.9,28.5,28.5,0,0,1,9.2-5.3,30.1,30.1,0,0,1,20.5,0,28.5,28.5,0,0,1,9.2,5.3,26,26,0,0,1,6.6,8.9A29.4,29.4,0,0,1,225,68.1V74H207V68q0-6.1-3.3-9a11.7,11.7,0,0,0-15.5,0q-3.3,2.9-3.3,9v62.4q0,6.1,3.3,9a11.7,11.7,0,0,0,15.5,0q3.3-2.9,3.3-9V108H194V93h31v36.7a29.2,29.2,0,0,1-2.5,12.5,26.2,26.2,0,0,1-6.6,8.8,28.5,28.5,0,0,1-9.2,5.3,30.1,30.1,0,0,1-20.5,0,28.4,28.4,0,0,1-9.2-5.3,26.2,26.2,0,0,1-6.6-8.8,29.2,29.2,0,0,1-2.5-12.5Z"/>
    <path class="palette palette--2"
          d="M238,40h50V56H254V90h30v16H254v35h34v17H238Z"/>
    <path class="palette palette--2"
          d="M321,56H302V40h56V56H338V158H321Z"/>
    <path class="palette palette--2"
          d="M371,40h17V158H371Z"/>
    <path class="palette palette--2"
          d="M401,68.1a29.4,29.4,0,0,1,2.5-12.4,26,26,0,0,1,6.6-8.9,28.5,28.5,0,0,1,9.2-5.3,30.1,30.1,0,0,1,20.5,0,28.6,28.6,0,0,1,9.2,5.3,26,26,0,0,1,6.6,8.9A29.4,29.4,0,0,1,458,68.1V74H441V68q0-6.1-3.4-9a12.7,12.7,0,0,0-16.2,0q-3.4,2.9-3.4,9v62.4q0,6.1,3.4,9a12.7,12.7,0,0,0,16.2,0q3.4-2.9,3.4-9V108H428V93h30v36.7a29.2,29.2,0,0,1-2.5,12.5,26.2,26.2,0,0,1-6.6,8.8,28.5,28.5,0,0,1-9.2,5.3,30.1,30.1,0,0,1-20.5,0,28.4,28.4,0,0,1-9.2-5.3,26.2,26.2,0,0,1-6.6-8.8,29.2,29.2,0,0,1-2.5-12.5Z"/>
    <path class="palette palette--2"
          d="M471,40h16l25.7,71h.3V40h17V158H514.1L488.3,87H488v71H471Z"/>
    <path class="palette palette--2"
          d="M543,40h17V158H543Z"/>
    <path class="palette palette--2"
          d="M593,56H574V40h56V56H610V158H593Z"/>
    <path class="palette palette--2"
          d="M644,40h50V56H660V90h30v16H660v35h34v17H644Z"/>
    <path class="palette palette--2"
          d="M707,40h25.2q14.5,0,22.2,8T762,70.5v55.2q0,16.6-8.1,24.4T730.7,158H707Zm17,102h7.8q7.2,0,10.2-3.6t3-11.2V70.6q0-6.9-2.8-10.8T731.8,56H724Z"/>
  </g>
</svg>