<svg viewBox="0 0 48 48" xmlns="http://www.w3.org/2000/svg">
  <path d="M0 25.096644C0 35.74067 6.876 44.77183 16.4145 47.958412c1.2.221374 1.638-.522563 1.638-1.161084 0-.57226-.021-2.087242-.033-4.09768-6.6765 1.45625-8.085-3.230254-8.085-3.230254-1.0905-2.78299-2.664-3.523914-2.664-3.523914-2.1795-1.495405.165-1.465286.165-1.465286 2.4075.170172 3.675 2.483305 3.675 2.483305 2.142 3.682036 5.6175 2.61884 6.9855 2.0014.2175-1.55715.8385-2.61884 1.524-3.22122-5.3295-.6084-10.932-2.67456-10.932-11.907515 0-2.630888.9345-4.78138 2.4705-6.466533-.2475-.609908-1.071-3.058576.234-6.376176 0 0 2.016-.647556 6.6 2.469752 1.9155-.53461 3.9675-.801164 6.009-.811706 2.0385.010542 4.092.277094 6.009.811705 4.581-3.11731 6.5925-2.469753 6.5925-2.469753 1.3095 3.3176.486 5.766268.2385 6.376176 1.539 1.685154 2.4675 3.835645 2.4675 6.466533 0 9.255545-5.6115 11.29309-10.9575 11.889445.861.743938 1.629 2.21374 1.629 4.46212 0 3.22122-.03 5.818975-.03 6.609597 0 .644545.432 1.394506 1.65 1.158072C41.13 44.762793 48 35.73766 48 25.096643 48 11.787093 37.254 1 23.9985 1 10.746 1 0 11.787092 0 25.096644z" fill-rule="evenodd"/>
</svg>