<svg viewBox="0 0 48 48" xmlns="http://www.w3.org/2000/svg">
  <path d="M24.000048 0c6.51796 0 7.335266.027628 9.89512.144427 2.55452.116512 4.299167.52226 5.825744 1.11559 1.578212.61324 2.916634 1.43388 4.25096 2.76811 1.33423 1.334327 2.15487 2.67275 2.768207 4.25096.59323 1.526578.99898 3.271223 1.11549 5.825744.1168 2.55986.14443 3.37716.14443 9.89522 0 6.51796-.02763 7.33527-.14443 9.89512-.11651 2.55452-.52226 4.29917-1.1155 5.82575-.61334 1.57821-1.43398 2.91664-2.76821 4.25096-1.33433 1.33423-2.67275 2.15487-4.25096 2.76821-1.52658.59324-3.27122.99898-5.82574 1.1155-2.55986.1168-3.37716.14443-9.89512.14443-6.51806 0-7.33536-.027625-9.89522-.144424-2.55452-.116512-4.29917-.52226-5.82575-1.115494-1.57821-.61334-2.916636-1.43398-4.25096-2.76821-1.33423-1.334326-2.15487-2.67275-2.76811-4.25096C.66667 38.194348.26092 36.4497.14441 33.89518.027623 31.335313 0 30.51801 0 24.000048c0-6.51806.027628-7.33536.144427-9.89522.116512-2.55452.52226-4.29917 1.11559-5.82575.61324-1.57821 1.43388-2.916637 2.76811-4.25096 1.334327-1.33423 2.67275-2.15487 4.25096-2.76811C9.805665.66668 11.55031.26093 14.10483.14442 16.664688.02763 17.48199 0 24.00005 0zm0 4.324317c-6.408308 0-7.167404.024484-9.698107.13995-2.33997.1067-3.61075.49768-4.45645.826354-1.12026.43538-1.91975.95545-2.75953 1.79533-.83989.83979-1.35996 1.63928-1.79534 2.75954-.32867.8457-.71965 2.11648-.82635 4.45646-.11546 2.53071-.13995 3.2898-.13995 9.69811 0 6.40821.02449 7.16731.13995 9.69801.1067 2.33998.49768 3.61076.82636 4.45646.43538 1.120257.95554 1.919747 1.79533 2.759536.83979.839884 1.63928 1.359953 2.75954 1.79533.84569.328674 2.11647.719654 4.45645.826354 2.53042.11546 3.28932.13995 9.69811.13995 6.40869 0 7.16769-.024488 9.69801-.13995 2.33998-.1067 3.61076-.49768 4.45645-.82636 1.12026-.435376 1.91975-.955445 2.75954-1.79533.839884-.83979 1.35995-1.63928 1.79533-2.759536.328674-.845697.719654-2.11648.826354-4.456456.115465-2.530704.13995-3.2898.13995-9.698012 0-6.4083-.024484-7.1674-.13995-9.6981-.1067-2.339975-.49768-3.610757-.826355-4.456452-.435378-1.12026-.955447-1.91975-1.79533-2.75954-.83979-.839882-1.63928-1.35995-2.759538-1.79533-.845695-.328672-2.116477-.719652-4.456454-.826352-2.530702-.115463-3.2898-.13995-9.69801-.13995zm0 7.351366c6.806528 0 12.32427 5.51774 12.32427 12.324365 0 6.806528-5.517742 12.32427-12.32427 12.32427-6.806624 0-12.324365-5.517742-12.324365-12.32427 0-6.806624 5.51774-12.324365 12.324365-12.324365zm0 20.324317C28.418298 32 32 28.4183 32 24.000048 32 19.5817 28.4183 16 24.000048 16 19.5817 16 16 19.5817 16 24.000048 16 28.418298 19.5817 32 24.000048 32zm15.691236-20.811232c0 1.590597-1.289455 2.879956-2.880052 2.879956-1.590502 0-2.879956-1.28936-2.879956-2.879956 0-1.590597 1.289454-2.880052 2.879956-2.880052 1.590597 0 2.880052 1.289455 2.880052 2.880052z" fill-rule="evenodd"/>
</svg>