<svg viewBox="0 0 48 48" xmlns="http://www.w3.org/2000/svg">
  <path d="M48 8.735283c-1.76369.80318-3.662617 1.346335-5.654517 1.589022 2.03416-1.248104 3.595-3.227158 4.33034-5.584688-1.90456 1.155652-4.009156 1.99639-6.25744 2.447093C38.62652 5.22499 36.065506 4 33.231203 4c-5.43476 0-9.843987 4.521488-9.843987 10.097508 0 .791622.084522 1.56013.253566 2.299747-8.18454-.421813-15.439338-4.437703-20.29935-10.55399-.848035 1.49657-1.332628 3.232936-1.332628 5.08198 0 3.501624 1.738335 6.592993 4.381053 8.404477-1.61155-.049115-3.132946-.508487-4.462757-1.25966v.124232c0 4.894186 3.394964 8.976526 7.9028 9.901047-.825498.23691-1.696074.355366-2.594823.355366-.633915 0-1.253742-.060672-1.853848-.179126 1.25374 4.01011 4.888182 6.93102 9.1988 7.00903-3.369608 2.71-7.618243 4.325025-12.230323 4.325025-.794507 0-1.58056-.046226-2.34971-.138678C4.358514 42.327194 9.53689 44 15.095615 44c18.115866 0 28.019018-15.384615 28.019018-28.729505 0-.439148-.008452-.878296-.025357-1.308776 1.924284-1.424344 3.595-3.20116 4.910724-5.22644" fill-rule="evenodd"/>
</svg>