<?xml version="1.0" standalone="no"?>
<!DOCTYPE svg PUBLIC "-//W3C//DTD SVG 20010904//EN"
 "http://www.w3.org/TR/2001/REC-SVG-20010904/DTD/svg10.dtd">
<svg version="1.0" xmlns="http://www.w3.org/2000/svg"
 width="16.000000pt" height="16.000000pt" viewBox="0 0 16.000000 16.000000"
 preserveAspectRatio="xMidYMid meet">
<metadata>
Created by potrace 1.11, written by Peter Selinger 2001-2013
</metadata>
<g transform="translate(0.000000,16.000000) scale(0.001509,-0.001509)"
fill="#000000" stroke="none">
<path d="M6234 9044 l1 -1546 -35 -32 c-36 -31 -96 -81 -180 -151 -97 -79
-134 -110 -144 -120 -6 -6 -49 -42 -96 -80 -46 -39 -92 -77 -102 -85 -9 -8
-23 -20 -30 -25 -7 -6 -40 -33 -73 -60 -32 -28 -68 -57 -78 -65 -11 -8 -30
-25 -43 -37 -13 -13 -26 -23 -30 -23 -4 0 -14 -8 -23 -18 -14 -15 -51 -46
-144 -122 -10 -8 -31 -25 -45 -38 -15 -13 -58 -49 -97 -80 -38 -31 -72 -59
-75 -62 -3 -3 -30 -25 -60 -50 -30 -25 -66 -55 -80 -67 -22 -19 -115 -96 -285
-238 -27 -22 -53 -45 -59 -50 -6 -6 -24 -21 -41 -33 -16 -13 -50 -41 -75 -62
-37 -31 -488 -406 -553 -460 -10 -8 -28 -23 -40 -34 -12 -10 -42 -35 -67 -55
-25 -20 -52 -44 -61 -53 -9 -10 -21 -18 -27 -18 -6 0 -12 -4 -14 -9 -1 -5 -34
-34 -73 -66 -63 -51 -121 -100 -181 -152 -12 -10 -39 -31 -60 -48 -20 -16 -42
-35 -48 -40 -9 -8 -350 -292 -381 -317 -28 -23 -63 -52 -85 -71 -14 -12 -77
-64 -140 -116 -63 -52 -119 -100 -125 -106 -5 -6 -27 -24 -47 -39 l-38 -28 0
-1402 1 -1401 47 -37 c26 -21 61 -49 77 -63 44 -37 67 -56 115 -95 41 -34 107
-88 160 -134 14 -11 50 -41 80 -66 30 -25 60 -49 66 -55 6 -5 30 -26 54 -45
24 -19 48 -40 54 -45 6 -6 49 -41 96 -79 47 -39 87 -72 90 -75 3 -3 26 -23 52
-44 26 -21 53 -43 60 -50 7 -7 35 -30 63 -52 27 -22 61 -50 75 -62 14 -11 102
-85 195 -162 94 -78 188 -157 210 -175 22 -19 101 -84 175 -146 74 -62 147
-123 162 -136 16 -13 29 -21 30 -17 0 5 2 620 4 1368 1 748 3 1374 3 1390 1
24 15 41 74 90 79 66 101 85 133 112 12 10 39 32 59 48 21 17 51 42 67 58 16
15 31 27 33 27 5 0 48 36 85 70 8 8 49 42 90 75 64 52 204 168 250 208 8 7 67
55 130 107 63 52 120 99 126 105 34 30 120 102 138 115 12 8 26 19 32 25 6 5
32 28 59 50 26 22 53 45 59 50 6 6 36 30 66 55 30 25 57 47 60 50 3 3 43 36
90 74 47 38 90 75 95 81 6 6 20 17 31 25 12 8 45 36 75 62 30 25 99 83 154
129 100 82 124 101 266 221 41 34 95 79 120 98 24 19 53 44 64 55 12 11 55 47
96 80 41 32 80 65 87 72 8 7 30 26 50 41 20 15 46 36 58 47 30 28 74 65 118
100 21 17 46 37 55 45 9 9 54 47 101 85 47 38 87 72 90 75 3 3 28 23 55 45 28
22 55 44 60 50 8 9 68 59 133 110 7 6 31 27 53 48 23 20 44 37 48 37 4 0 25
17 47 38 22 20 74 64 115 97 84 67 106 86 158 132 20 18 39 33 44 33 4 0 7
701 7 1559 l0 1559 -34 26 c-19 14 -40 31 -48 38 -13 14 -161 136 -237 198
-23 19 -53 44 -65 55 -27 24 -18 16 -276 230 -212 176 -245 203 -264 220 -6 6
-36 30 -66 55 -30 25 -60 49 -67 55 -59 51 -112 96 -194 162 -53 43 -103 85
-111 93 -9 8 -85 71 -169 140 -85 69 -166 137 -181 151 -15 15 -34 29 -43 32
-8 4 -15 11 -15 17 0 5 -4 10 -10 10 -5 0 -23 14 -40 30 -17 17 -34 30 -38 30
-5 0 -8 -696 -8 -1546z"/>
<path d="M4197 8684 c-26 -24 -52 -44 -57 -44 -6 0 -10 -4 -10 -8 0 -5 -35
-38 -77 -75 -43 -36 -87 -74 -98 -84 -11 -10 -54 -47 -95 -83 -41 -36 -77 -67
-80 -70 -3 -3 -36 -32 -75 -65 -38 -32 -77 -66 -86 -75 -8 -8 -41 -37 -73 -65
-68 -58 -101 -87 -136 -119 -14 -12 -54 -47 -90 -77 -35 -30 -73 -63 -85 -74
-11 -11 -51 -47 -90 -80 -38 -33 -75 -64 -81 -70 -6 -5 -40 -35 -74 -65 -35
-30 -72 -63 -84 -73 -12 -11 -38 -33 -58 -50 l-38 -31 0 -1098 c0 -604 2
-1098 6 -1098 3 0 11 6 18 13 7 6 39 35 70 62 32 28 68 59 80 70 24 21 71 62
281 245 72 63 139 122 150 131 11 10 31 27 45 39 14 12 54 47 89 78 35 31 73
65 85 75 102 87 206 178 234 205 12 12 25 22 27 22 3 0 20 15 39 33 19 17 55
50 81 72 26 22 66 57 88 77 23 21 65 57 94 80 l52 43 1 175 c2 454 0 2023 -2
2026 -2 1 -25 -17 -51 -42z"/>
<path d="M7943 5192 c-170 -142 -157 -131 -423 -351 -107 -89 -206 -171 -220
-184 -14 -12 -61 -51 -105 -86 -44 -35 -84 -69 -90 -76 -5 -6 -19 -17 -31 -25
-11 -8 -43 -33 -69 -55 -78 -65 -196 -164 -249 -208 -27 -23 -59 -48 -70 -56
-12 -8 -23 -17 -26 -21 -3 -3 -32 -28 -65 -55 -33 -28 -65 -54 -71 -60 -6 -5
-25 -21 -43 -35 -18 -14 -38 -30 -44 -35 -11 -10 -106 -89 -152 -127 -68 -57
-61 17 -61 -673 l0 -620 -170 -270 c-93 -148 -173 -274 -177 -280 -8 -11 -143
-227 -215 -345 -25 -41 -49 -77 -53 -80 -3 -3 -14 -18 -23 -35 -9 -16 -24 -42
-34 -56 -9 -15 -33 -53 -52 -84 -19 -31 -42 -68 -50 -80 -8 -13 -28 -45 -44
-71 -16 -27 -33 -53 -38 -59 -5 -5 -45 -68 -89 -140 -45 -71 -147 -235 -228
-362 -80 -128 -151 -241 -156 -250 -6 -10 -18 -29 -27 -43 -56 -87 -198 -313
-198 -316 0 -6 61 37 75 52 5 6 44 38 85 70 41 32 82 64 90 71 8 7 42 34 76
60 33 26 77 62 98 78 21 17 86 68 145 115 58 47 234 186 390 310 156 124 289
230 295 235 9 8 83 66 131 102 6 5 44 35 85 68 41 33 81 65 90 72 42 33 249
198 279 221 18 15 38 32 45 37 6 6 29 24 51 40 22 17 42 32 45 35 3 3 70 57
150 119 80 63 150 120 155 126 6 6 17 16 26 21 9 5 36 25 60 46 24 20 123 98
219 174 96 77 177 142 178 146 2 5 8 8 14 8 6 0 21 11 34 25 13 14 27 25 33
25 5 0 11 3 13 8 2 4 39 35 83 69 44 35 91 73 105 85 14 13 37 31 51 40 14 9
32 23 40 30 8 7 76 62 152 122 l137 109 0 1274 c0 700 -1 1273 -2 1272 -2 0
-71 -58 -155 -127z"/>
</g>
</svg>
