<svg viewBox="0 0 140 86" xmlns="http://www.w3.org/2000/svg">
  <g fill="none" fill-rule="evenodd">
    <g transform="translate(1.000000, 1.000000)">
      <path d="M4 0h130c2.2 0 4 1.8 4 4v3H0V4c0-2.2 1.8-4 4-4z" fill="#FFF"/>
      <path d="M0 7h35v77H4c-2.2 0-4-1.8-4-4V7z" fill="#E8DEC7"/>
      <path d="M35 7h103v73c0 2.2-1.8 4-4 4H35V7z" fill="#F3F3F3"/>
      <circle fill="#FC605C" cx="4.5" cy="3.5" r="1.5"/>
      <circle fill="#FDBC40" cx="8.5" cy="3.5" r="1.5"/>
      <circle fill="#34C749" cx="12.5" cy="3.5" r="1.5"/>
      <path stroke="#FBCC21" stroke-width="2" fill="#FBCC21" stroke-linecap="round" stroke-linejoin="round" d="M48 24h20v20H48z"/>
    </g>
    <rect stroke="#3E3E3E" stroke-width="2" stroke-linecap="round" stroke-linejoin="round" x="1" y="1" width="138" height="84" rx="4"/>
    <path d="M1 8h138" stroke="#3E3E3E" stroke-width="2" stroke-linecap="round" stroke-linejoin="round"/>
    <path d="M48 54h60" stroke="#3E3E3E" stroke-width="2" stroke-linecap="round" stroke-linejoin="round"/>
    <path d="M48 59h55" stroke="#3E3E3E" stroke-width="2" stroke-linecap="round" stroke-linejoin="round"/>
    <path d="M48 64h58" stroke="#3E3E3E" stroke-width="2" stroke-linecap="round" stroke-linejoin="round"/>
    <path d="M48 69h40" stroke="#3E3E3E" stroke-width="2" stroke-linecap="round" stroke-linejoin="round"/>
    <path d="M36 9v76" stroke="#3E3E3E" stroke-width="2" stroke-linecap="round" stroke-linejoin="round" stroke-dasharray="8 10 62"/>
  </g>
</svg>