<svg version="1.1" id="getignited-ext" xmlns="http://www.w3.org/2000/svg"
   viewBox="0 0 500 145">
  <g id="getignited_icon">
    <path class="palette palette--1" 
          d="M0,114.2l20.9,17.4v-31.2l41.8-34.7V30.8L41.8,13.5v34.7L0,82.9V114.2z M3.5,73V48.4l16.1-14.1v24.6L3.5,73z"/>
    <polygon class="palette palette--2"
             points="24.2,131.5 41.6,103.7 41.6,89.8 62.6,72.5 62.6,100.9"/>
  </g>
  <g id="getignited_extended">
    <rect class="palette palette--3"
          x="101.2" width="2.4" height="145"/>
    <g id="getignited_name">
      <path class="palette palette--4"
            d="M142,53.8c0-2.9,0.5-5.4,1.5-7.6c1-2.2,2.3-4,3.9-5.4c1.6-1.4,3.5-2.5,5.5-3.2c2-0.7,4.1-1.1,6.1-1.1c2.1,0,4.1,0.4,6.1,1.1c2,0.7,3.9,1.8,5.5,3.2c1.6,1.4,2.9,3.2,3.9,5.4c1,2.2,1.5,4.7,1.5,7.6v3.6H166v-3.6c0-2.5-0.7-4.3-2-5.4c-1.4-1.2-3-1.7-4.8-1.7c-1.9,0-3.5,0.6-4.8,1.7c-1.4,1.2-2,3-2,5.4v37.6c0,2.5,0.7,4.3,2,5.4c1.4,1.2,3,1.7,4.8,1.7c1.9,0,3.5-0.6,4.8-1.7c1.4-1.2,2-3,2-5.4V78h-8.1v-9h18.3v22.4c0,2.9-0.5,5.5-1.5,7.6c-1,2.2-2.3,4-3.9,5.4c-1.6,1.4-3.5,2.5-5.5,3.2c-2,0.7-4.1,1.1-6.1,1.1c-2.1,0-4.1-0.4-6.1-1.1c-2-0.7-3.9-1.8-5.5-3.2c-1.6-1.4-2.9-3.2-3.9-5.4c-1-2.2-1.5-4.7-1.5-7.6V53.8z"/>
      <path class="palette palette--4"
            d="M184.1,37.1h30.4v9.6h-20.2v20.9h17.6v9.6h-17.6V98h20.2v10.2h-30.4V37.1z"/>
      <path class="palette palette--4"
            d="M234.4,46.7h-11.8v-9.6h33.8v9.6h-11.8v61.5h-10.2V46.7z"/>
      <path class="palette palette--4"
            d="M264.2,37.1h10.2v71.1h-10.2V37.1z"/>
      <path class="palette palette--4"
            d="M282.4,53.8c0-2.9,0.5-5.4,1.5-7.6c1-2.2,2.3-4,3.9-5.4c1.6-1.4,3.5-2.5,5.5-3.2c2-0.7,4.1-1.1,6.1-1.1c2.1,0,4.1,0.4,6.1,1.1c2,0.7,3.9,1.8,5.5,3.2c1.6,1.4,2.9,3.2,3.9,5.4c1,2.2,1.5,4.7,1.5,7.6v3.6h-10.2v-3.6c0-2.5-0.7-4.3-2-5.4c-1.4-1.2-3-1.7-4.8-1.7c-1.9,0-3.5,0.6-4.8,1.7c-1.4,1.2-2,3-2,5.4v37.6c0,2.5,0.7,4.3,2,5.4c1.4,1.2,3,1.7,4.8,1.7c1.9,0,3.5-0.6,4.8-1.7c1.4-1.2,2-3,2-5.4V78h-8.1v-9h18.3v22.4c0,2.9-0.5,5.5-1.5,7.6c-1,2.2-2.3,4-3.9,5.4c-1.6,1.4-3.5,2.5-5.5,3.2c-2,0.7-4.1,1.1-6.1,1.1c-2.1,0-4.1-0.4-6.1-1.1c-2-0.7-3.9-1.8-5.5-3.2c-1.6-1.4-2.9-3.2-3.9-5.4c-1-2.2-1.5-4.7-1.5-7.6V53.8z"/>
      <path class="palette palette--4"
            d="M324.5,37.1h9.8l15.4,42.8h0.2V37.1h10.2v71.1h-9.6l-15.6-42.7h-0.2v42.7h-10.2V37.1z"/>
      <path class="palette palette--4"
            d="M368.1,37.1h10.2v71.1h-10.2V37.1z"/>
      <path class="palette palette--4"
            d="M398.2,46.7h-11.8v-9.6h33.8v9.6h-11.8v61.5h-10.2V46.7z"/>
      <path class="palette palette--4"
            d="M428.5,37.1h30.4v9.6h-20.2v20.9h17.6v9.6h-17.6V98h20.2v10.2h-30.4V37.1z"/>
      <path class="palette palette--4"
            d="M467,37.1h15.1c5.8,0,10.2,1.6,13.3,4.8c3.1,3.2,4.6,7.7,4.6,13.5v33.3c0,6.7-1.6,11.6-4.8,14.7c-3.2,3.2-7.9,4.7-13.9,4.7H467V37.1z M477.2,98.6h4.7c2.9,0,4.9-0.7,6.1-2.1c1.2-1.4,1.8-3.7,1.8-6.7V55.4c0-2.8-0.6-5-1.7-6.5c-1.1-1.5-3.2-2.3-6.2-2.3h-4.7V98.6z"/>
    </g>
  </g>
</svg>
