<svg viewBox="0 0 48 48" xmlns="http://www.w3.org/2000/svg">
  <path d="M24.00141 0C10.747576 0 0 10.744752 0 24.00141c0 9.824662 5.910037 18.269185 14.368672 21.980597-.067737-1.673663-.01129-3.688834.414888-5.512083.462868-1.947433 3.08767-13.076027 3.08767-13.076027s-.764862-1.532546-.764862-3.798907c0-3.556182 2.06315-6.21203 4.628682-6.21203 2.18169 0 3.237255 1.639795 3.237255 3.604163 0 2.19298-1.399894 5.475392-2.119597 8.515082-.601164 2.548598 1.27571 4.623037 3.787617 4.623037 4.546833 0 7.609102-5.839477 7.609102-12.759922 0-5.25807-3.54207-9.195272-9.985536-9.195272-7.278882 0-11.814426 5.427412-11.814426 11.489857 0 2.094196.615276 3.567472 1.580526 4.707708.445933.527783.505202.736638.34433 1.340625-.112897.437467-.3782 1.50432-.48827 1.924854-.160877.60681-.65197.826954-1.199508.601164-3.355794-1.368848-4.916563-5.040747-4.916563-9.16987 0-6.816018 5.74916-14.995238 17.151524-14.995238 9.164226 0 15.195625 6.635385 15.195625 13.750573 0 9.41542-5.23267 16.44876-12.951844 16.44876-2.58811 0-5.026636-1.399895-5.862057-2.988887 0 0-1.39425 5.529018-1.687777 6.595873-.508026 1.84865-1.50432 3.700123-2.415946 5.13953C19.358617 47.65285 21.63909 48 24.00141 48 37.25525 48 48 37.255248 48 24.00141 48 10.744753 37.255248 0 24.00141 0" fill-rule="evenodd"/>
</svg>