<?xml version="1.0" encoding="UTF-8"?>
<svg width="100px" height="72px" viewBox="0 0 100 72" version="1.1" xmlns="http://www.w3.org/2000/svg" xmlns:xlink="http://www.w3.org/1999/xlink">
    <!-- Generator: Sketch 46.2 (44496) - http://www.bohemiancoding.com/sketch -->
    <title>about-games</title>
    <desc>Created with Sketch.</desc>
    <defs></defs>
    <g id="Symbols" stroke="none" stroke-width="1" fill="none" fill-rule="evenodd">
        <g id="about-games">
            <g id="games">
                <rect id="Rectangle" x="0" y="0" width="100" height="72"></rect>
                <g id="Group" transform="translate(10.000000, 6.000000)">
                    <path d="M54.2183618,56.2179164 L54.2183618,58 C54.2183618,61.8659932 57.3523685,65 61.2183618,65 L61.2183618,65 L67.3435302,65 C67.8034702,65 68.2630071,64.9727793 68.7197307,64.9184806 C75.1127931,64.1584261 79.6792482,58.3596791 78.9191937,51.9666167 L78.9191937,51.9666167 L75.4192866,22.527776 C75.1800487,20.5154693 73.4737368,19 71.4472588,19 L58.2183618,19 C56.2530275,19 54.6187419,20.4173876 54.2819535,22.2857143 L25.7169051,22.2857143 C25.3801167,20.4173876 23.745831,19 21.7804968,19 L21.7804968,19 L8.55159972,19 L8.55159972,19 C6.52512178,19 4.81880987,20.5154693 4.57957197,22.527776 L4.57957197,22.527776 L1.07966487,51.9666167 C1.02536619,52.4233403 0.99814547,52.8828771 0.99814547,53.3428171 C0.99814547,59.7809015 6.21724401,65 12.6553283,65 L18.7804968,65 C22.64649,65 25.7804968,61.8659932 25.7804968,58 L25.7804968,56.2173242 C26.7443139,56.7174315 27.8391582,57 29,57 C32.6085424,57 35.5793435,54.2695051 35.959014,50.7619048 L44.040986,50.7619048 C44.4206565,54.2695051 47.3914576,57 51,57 C52.1603835,57 53.2548217,56.7176545 54.2183618,56.2179164 Z" id="Shape-colour" fill="#F3F3F3"></path>
                    <path d="M54.2183618,56.2179164 L54.2183618,58 C54.2183618,61.8659932 57.3523685,65 61.2183618,65 L61.2183618,65 L67.3435302,65 C67.8034702,65 68.2630071,64.9727793 68.7197307,64.9184806 C75.1127931,64.1584261 79.6792482,58.3596791 78.9191937,51.9666167 L78.9191937,51.9666167 L75.4192866,22.527776 C75.1800487,20.5154693 73.4737368,19 71.4472588,19 L58.2183618,19 C56.2530275,19 54.6187419,20.4173876 54.2819535,22.2857143 L25.7169051,22.2857143 C25.3801167,20.4173876 23.745831,19 21.7804968,19 L21.7804968,19 L8.55159972,19 L8.55159972,19 C6.52512178,19 4.81880987,20.5154693 4.57957197,22.527776 L4.57957197,22.527776 L1.07966487,51.9666167 C1.02536619,52.4233403 0.99814547,52.8828771 0.99814547,53.3428171 C0.99814547,59.7809015 6.21724401,65 12.6553283,65 L18.7804968,65 C22.64649,65 25.7804968,61.8659932 25.7804968,58 L25.7804968,56.2173242 C26.7443139,56.7174315 27.8391582,57 29,57 C32.6085424,57 35.5793435,54.2695051 35.959014,50.7619048 L44.040986,50.7619048 C44.4206565,54.2695051 47.3914576,57 51,57 C52.1603835,57 53.2548217,56.7176545 54.2183618,56.2179164 Z" id="Shape" stroke="#3E3E3E" stroke-width="2" stroke-linecap="round" stroke-linejoin="round" stroke-dasharray="80,10,80,9"></path>
                    <rect id="Rectangle-colour" fill="#707070" x="29" y="42" width="8" height="4" rx="2"></rect>
                    <rect id="Rectangle" stroke="#3E3E3E" stroke-width="2" stroke-linecap="round" stroke-linejoin="round" x="29" y="42" width="8" height="4" rx="2"></rect>
                    <rect id="Rectangle-colour" fill="#707070" x="43" y="42" width="8" height="4" rx="2"></rect>
                    <rect id="Rectangle" stroke="#3E3E3E" stroke-width="2" stroke-linecap="round" stroke-linejoin="round" x="43" y="42" width="8" height="4" rx="2"></rect>
                    <circle id="Oval-colour" fill="#C0DAF3" cx="63.5" cy="42" r="2.5"></circle>
                    <circle id="Oval" stroke="#3E3E3E" stroke-width="2" stroke-linecap="round" stroke-linejoin="round" cx="63.5" cy="42" r="2.5"></circle>
                    <circle id="Oval-colour" fill="#F2AFB6" cx="69.5" cy="36" r="2.5"></circle>
                    <circle id="Oval" stroke="#3E3E3E" stroke-width="2" stroke-linecap="round" stroke-linejoin="round" cx="69.5" cy="36" r="2.5"></circle>
                    <circle id="Oval-colour" fill="#F3D5ED" cx="57.5" cy="36" r="2.5"></circle>
                    <circle id="Oval" stroke="#3E3E3E" stroke-width="2" stroke-linecap="round" stroke-linejoin="round" cx="57.5" cy="36" r="2.5"></circle>
                    <circle id="Oval-colour" fill="#7AC2C1" cx="63.5" cy="30" r="2.5"></circle>
                    <circle id="Oval" stroke="#3E3E3E" stroke-width="2" stroke-linecap="round" stroke-linejoin="round" cx="63.5" cy="30" r="2.5"></circle>
                    <path d="M19,33 L19,28 L13,28 L13,33 L8,33 L8,39 L13,39 L13,44 L19,44 L19,39 L24,39 L24,33 L19,33 Z" id="Shape-colour" fill="#707070"></path>
                    <path d="M19,33 L19,28 L13,28 L13,33 L8,33 L8,39 L13,39 L13,44 L19,44 L19,39 L24,39 L24,33 L19,33 Z" id="Shape" stroke="#3E3E3E" stroke-width="2" stroke-linecap="round" stroke-linejoin="round"></path>
                    <path d="M40,22 L40,18 L40,18 C40,16.3431458 41.3431458,15 43,15 L49,15 L49,15 C50.1045695,15 51,14.1045695 51,13 L51,13 L51,13 C51,11.8954305 50.1045695,11 49,11 L31,11 L31,11 C29.8954305,11 29,10.1045695 29,9 L29,9 L29,9 C29,7.8954305 29.8954305,7 31,7 L37,7 L37,7 C38.6568542,7 40,5.65685425 40,4 L40,0" id="Path" stroke="#3E3E3E" stroke-width="2" stroke-linecap="round" stroke-linejoin="round"></path>
                </g>
            </g>
        </g>
    </g>
</svg>