<?xml version="1.0" encoding="UTF-8"?>
<svg width="100px" height="72px" viewBox="0 0 100 72" version="1.1" xmlns="http://www.w3.org/2000/svg" xmlns:xlink="http://www.w3.org/1999/xlink">
    <!-- Generator: Sketch 46.2 (44496) - http://www.bohemiancoding.com/sketch -->
    <title>about-books</title>
    <desc>Created with Sketch.</desc>
    <defs></defs>
    <g id="Symbols" stroke="none" stroke-width="1" fill="none" fill-rule="evenodd">
        <g id="about-books">
            <g id="books">
                <rect id="Rectangle" x="0" y="0" width="100" height="72"></rect>
                <g id="Group" transform="translate(9.000000, 2.000000)">
                    <rect id="Rectangle-colour" fill="#E8DEC7" x="5" y="55" width="31" height="14"></rect>
                    <rect id="Rectangle" stroke="#3E3E3E" stroke-width="2" stroke-linecap="round" stroke-linejoin="round" x="5" y="55" width="31" height="14"></rect>
                    <rect id="Rectangle-colour" fill="#CFBE98" x="11" y="55" width="10" height="14"></rect>
                    <rect id="Rectangle" stroke="#3E3E3E" stroke-width="2" stroke-linecap="round" stroke-linejoin="round" x="11" y="55" width="10" height="14"></rect>
                    <polygon id="Rectangle-colour" fill="#E8DEC7" points="10 39 36 39 36 53 10 53 10 50 36 50 36 42 10 42"></polygon>
                    <polygon id="Rectangle" stroke="#3E3E3E" stroke-width="2" stroke-linecap="round" stroke-linejoin="round" points="10 39 36 39 36 53 10 53 10 50 36 50 36 42 10 42"></polygon>
                    <rect id="Rectangle-colour" fill="#F3F3F3" x="13" y="42" width="23" height="8"></rect>
                    <rect id="Rectangle" stroke="#3E3E3E" stroke-width="2" stroke-linecap="round" stroke-linejoin="round" x="13" y="42" width="23" height="8"></rect>
                    <rect id="Rectangle-colour" fill="#E8DEC7" x="0" y="23" width="36" height="14"></rect>
                    <rect id="Rectangle" stroke="#3E3E3E" stroke-width="2" stroke-linecap="round" stroke-linejoin="round" x="0" y="23" width="36" height="14"></rect>
                    <path d="M5,26 L36,26 L36,34 L5,34 L5,34 C3.8954305,34 3,33.1045695 3,32 L3,28 L3,28 C3,26.8954305 3.8954305,26 5,26 Z" id="Rectangle--colour" fill="#F3F3F3"></path>
                    <path d="M5,26 L36,26 L36,34 L5,34 L5,34 C3.8954305,34 3,33.1045695 3,32 L3,28 L3,28 C3,26.8954305 3.8954305,26 5,26 Z" id="Rectangle-" stroke="#3E3E3E" stroke-width="2" stroke-linecap="round" stroke-linejoin="round"></path>
                    <path d="M36,11 L78,11 L78,11 C80.209139,11 82,12.790861 82,15 L82,65 L82,65 C82,67.209139 80.209139,69 78,69 L36,69 L36,11 Z" id="Rectangle-colour" fill="#98CBF6"></path>
                    <path d="M36,11 L78,11 L78,11 C80.209139,11 82,12.790861 82,15 L82,65 L82,65 C82,67.209139 80.209139,69 78,69 L36,69 L36,11 Z" id="Rectangle" stroke="#3E3E3E" stroke-width="2" stroke-linecap="round" stroke-linejoin="round"></path>
                    <path d="M54,0.0666666667 L54,11 L43,11 L43,0.0666666667 L48.5,3 L54,0.0666666667 Z" id="Shape-colour" fill="#FBCC21"></path>
                    <path d="M54,0.0666666667 L54,11 L43,11 L43,0.0666666667 L48.5,3 L54,0.0666666667 Z" id="Shape" stroke="#3E3E3E" stroke-width="2" stroke-linecap="round" stroke-linejoin="round"></path>
                    <rect id="Rectangle-colour" fill="#FBCC21" x="64" y="11" width="10" height="58"></rect>
                    <rect id="Rectangle" stroke="#3E3E3E" stroke-width="2" stroke-linecap="round" stroke-linejoin="round" stroke-dasharray="101,6,6,7" x="64" y="11" width="10" height="58"></rect>
                </g>
            </g>
        </g>
    </g>
</svg>